<?xml version="1.0" encoding="UTF-8" standalone="no"?>
<svg
   xmlns:dc="http://purl.org/dc/elements/1.1/"
   xmlns:cc="http://creativecommons.org/ns#"
   xmlns:rdf="http://www.w3.org/1999/02/22-rdf-syntax-ns#"
   xmlns:svg="http://www.w3.org/2000/svg"
   xmlns="http://www.w3.org/2000/svg"
   viewBox="0 0 431.52151 756.8902"
   height="756.8902"
   width="431.52151"
   id="svg12706"
   version="1.1">
  <metadata
     id="metadata12712">
    <rdf:RDF>
      <cc:Work
         rdf:about="">
        <dc:format>image/svg+xml</dc:format>
        <dc:type
           rdf:resource="http://purl.org/dc/dcmitype/StillImage" />
        <dc:title></dc:title>
      </cc:Work>
    </rdf:RDF>
  </metadata>
  <defs
     id="defs12710" />
  <g
     transform="translate(-502.45849,-49.108807)"
     style="display:inline"
     id="layer7" />
  <g
     transform="translate(-502.45849,-49.108807)"
     id="layer9" />
  <g
     transform="translate(-502.45849,-49.108807)"
     id="layer8">
    <g
       id="g13660">
      <path
         style="opacity:0.5;vector-effect:none;fill:#363253;fill-opacity:1;fill-rule:evenodd;stroke:none;stroke-width:2;stroke-linecap:butt;stroke-linejoin:miter;stroke-miterlimit:4;stroke-dasharray:none;stroke-dashoffset:0;stroke-opacity:1;paint-order:stroke fill markers"
         d="m 756.51737,217.00943 c 1.73345,-1.74986 3.40854,-3.56007 5.22433,-5.22433 1.9485,-1.78589 4.05239,-3.39729 6.2355,-4.88728 3.64527,-2.48793 7.50809,-4.63692 11.2913,-6.90961 4.28538,-2.57436 8.49945,-5.33087 12.13394,-8.7634 3.3753,-3.18775 6.20179,-6.91369 8.7634,-10.78572 3.52729,-5.33172 6.58309,-10.97631 9.10046,-16.85269 1.47673,-3.44717 2.78544,-7.00582 4.88728,-10.11162 0.71094,-1.05052 1.50796,-2.04158 2.1977,-3.10613 0.68975,-1.06456 1.27675,-2.21956 1.50989,-3.46642 0.21829,-1.16743 0.11877,-2.37064 -0.049,-3.54638 -0.1678,-1.17575 -0.40344,-2.34528 -0.45655,-3.53175 -0.11478,-2.5643 0.6235,-5.07783 1.17969,-7.58371 0.62072,-2.79662 1.02054,-5.63986 1.68527,-8.42635 1.23458,-5.17522 3.41363,-10.17326 6.74107,-14.32479 2.40009,-2.99451 5.36486,-5.5114 8.59488,-7.58371 7.9709,-5.113946 17.36392,-7.468151 26.62725,-9.437505 9.15159,-1.945598 18.64764,-3.594256 27.80694,-1.68527 6.64854,1.385693 12.82468,4.613767 18.20091,8.763401 4.09863,3.163524 7.77141,6.870604 10.95425,10.954254 3.68634,4.72965 6.74721,10.03836 8.25782,15.84153 0.8855,3.40173 1.22681,6.9773 0.67411,10.44867 -0.80589,5.06165 -3.43604,9.61233 -5.75604,14.1826 -2.32001,4.57026 -4.41658,9.52558 -4.01852,14.6355 0.20467,2.62732 1.06335,5.15625 1.51674,7.75224 0.81775,4.68218 0.30234,9.50458 -0.67411,14.15626 -1.34084,6.38759 -3.53634,12.55934 -5.72991,18.70649 -1.6665,4.67012 -3.33836,9.34808 -4.55023,14.15626 -1.96694,7.80399 -2.70164,15.88278 -2.69643,23.93082 0.006,9.1085 0.91972,18.45687 -1.8538,27.13284 -2.76484,8.64883 -8.92673,15.75701 -12.94982,23.89712 -2.48735,5.03279 -4.16745,10.60393 -3.81333,16.20665 0.0911,1.44132 0.31551,2.87176 0.4054,4.31316 0.0899,1.44139 0.041,2.91339 -0.40051,4.28844 -0.44154,1.37504 -1.31127,2.65322 -2.56818,3.36447 -0.62846,0.35563 -1.34486,0.56261 -2.06695,0.56464 -0.7221,0.002 -1.44808,-0.20493 -2.04309,-0.61406 -0.47785,-0.32857 -0.86382,-0.77938 -1.16253,-1.27645 -0.29871,-0.49707 -0.5132,-1.04059 -0.68782,-1.5936 -0.34923,-1.106 -0.54566,-2.26363 -1.00965,-3.32661 -0.54659,-1.25222 -1.44586,-2.32414 -2.45947,-3.24035 -1.0136,-0.91621 -2.14562,-1.68981 -3.26052,-2.47964 -2.74271,-1.94303 -5.44704,-4.02578 -8.57999,-5.24333 -2.11577,-0.82225 -4.42012,-1.22845 -6.67332,-0.95333 -3.22177,0.39338 -6.11366,2.12531 -9.23753,3.00618 -1.56194,0.44044 -3.21322,0.66635 -4.81206,0.38824 -1.59884,-0.27812 -3.14428,-1.10384 -4.06373,-2.44109 -0.5257,-0.76458 -0.83636,-1.6702 -1.43,-2.38333 -0.70027,-0.84122 -1.75124,-1.34431 -2.8315,-1.52055 -1.08026,-0.17625 -2.19124,-0.0474 -3.25447,0.21252 -2.12646,0.51988 -4.1298,1.56022 -6.30735,1.7847 -2.79294,0.28792 -5.65319,-0.86279 -7.62665,-2.86 -2.26724,-2.29453 -3.34609,-5.49455 -5.24333,-8.10333 -1.60412,-2.20572 -3.78097,-3.95861 -6.17331,-5.26821 -2.39235,-1.30961 -5.0001,-2.18984 -7.65001,-2.83511 -7.93504,-1.93222 -16.21391,-1.78659 -24.30997,-2.86 -3.82324,-0.5069 -7.67987,-1.31216 -11.04937,-3.18849 -1.68474,-0.93816 -3.23219,-2.14193 -4.47357,-3.61756 -1.24139,-1.47563 -2.17085,-3.22844 -2.59037,-5.1106 -0.77031,-3.45594 0.19675,-7.02767 0.95333,-10.48665 0.48523,-2.21842 0.88678,-4.4689 0.90358,-6.73971 0.0168,-2.27081 -0.36553,-4.5754 -1.38025,-6.60695 -0.96936,-1.94073 -2.50373,-3.58709 -4.34355,-4.7365 -1.83983,-1.14942 -3.9778,-1.80436 -6.1431,-1.93682 -2.33698,-0.14296 -4.69219,0.30889 -7.01667,0.0284 -1.16224,-0.14026 -2.31824,-0.4714 -3.30039,-1.10847 -0.98215,-0.63707 -1.77966,-1.60077 -2.07626,-2.73324 -0.19138,-0.73071 -0.17047,-1.50928 0.0103,-2.24269 0.18077,-0.7334 0.51777,-1.42304 0.94303,-2.04731 1.16006,-1.70293 2.93986,-2.89091 4.79583,-3.78595 1.85596,-0.89505 3.82418,-1.53816 5.69083,-2.41071 4.38185,-2.04826 8.08413,-5.30175 11.48821,-8.73806 z"
         id="path13312"
         transform="rotate(-3.8623399,733.45964,452.7809)" />
      <path
         style="opacity:1;vector-effect:none;fill:#aca9ff;fill-opacity:1;fill-rule:evenodd;stroke:none;stroke-width:2.09166527;stroke-linecap:butt;stroke-linejoin:miter;stroke-miterlimit:4;stroke-dasharray:none;stroke-dashoffset:0;stroke-opacity:1;paint-order:stroke fill markers"
         d="m 595.35599,417.36728 c -3.48663,3.83778 -5.39521,8.90833 -6.16725,14.03561 -0.77204,5.12729 -0.48,10.35222 -0.0294,15.51769 2.04707,23.46745 7.32046,46.57743 9.05666,70.06992 1.37332,18.58238 0.52929,37.34957 3.33666,55.76993 1.2851,8.4321 3.33375,16.752 6.19666,24.78664 5.71087,16.02733 14.56982,30.71341 23.35664,45.28328 8.3527,13.85003 17.20435,28.23386 30.9833,36.7033 5.83812,3.58849 12.43809,6.0217 17.63665,10.48665 6.38282,5.48209 10.06406,13.626 11.43998,21.92664 0.69059,4.16619 0.8795,8.52039 2.73417,12.31437 0.92733,1.897 2.28425,3.62172 4.07093,4.74702 1.78668,1.12531 4.02682,1.60403 6.06489,1.05193 1.21924,-0.33028 2.32555,-1.00978 3.26648,-1.85256 0.94093,-0.84278 1.72498,-1.84672 2.43279,-2.89297 1.41563,-2.09249 2.56191,-4.39455 4.31072,-6.21779 2.01445,-2.10019 4.70326,-3.42793 7.44075,-4.41532 2.73749,-0.9874 5.57834,-1.67645 8.28923,-2.73468 2.86258,-1.11745 5.58532,-2.64748 8.57999,-3.33666 3.66096,-0.84252 7.48448,-0.37435 11.19822,0.19184 3.71375,0.56619 7.47757,1.22846 11.20509,0.76149 3.6941,-0.46278 7.16689,-2.01681 10.40966,-3.84575 3.24277,-1.82893 6.31808,-3.94928 9.61032,-5.68757 1.63265,-0.86204 3.34228,-1.63664 5.16552,-1.92725 1.82324,-0.29061 3.78803,-0.0548 5.32113,0.97392 1.39806,0.93811 2.33186,2.46818 2.77197,4.09327 0.44011,1.62509 0.42062,3.34448 0.20056,5.01367 -0.44013,3.33837 -1.66731,6.59475 -1.54253,9.9597 0.094,2.53611 0.95551,4.981 1.97129,7.3067 1.01578,2.32571 2.19772,4.58636 2.99249,6.99656 1.02744,3.11577 1.38357,6.40475 1.87519,9.64851 0.49162,3.24376 1.14396,6.5235 2.69435,9.41486 1.35894,2.53431 3.46514,4.75013 6.14086,5.80369 1.33785,0.52678 2.80086,0.75291 4.22969,0.59225 1.42883,-0.16066 2.81984,-0.71486 3.92943,-1.62928 0.97919,-0.80696 1.72484,-1.87817 2.22433,-3.04459 0.49948,-1.16641 0.75878,-2.42682 0.85048,-3.69236 0.18342,-2.53109 -0.2918,-5.05697 -0.69147,-7.56303 -0.4714,-2.95583 -0.8252,-6.07168 0.23626,-8.87034 0.53073,-1.39932 1.42479,-2.6829 2.65188,-3.53965 1.2271,-0.85675 2.79967,-1.25577 4.26185,-0.93666 0.92053,0.2009 1.7695,0.67381 2.48201,1.29031 0.71251,0.6165 1.29377,1.37352 1.78009,2.18052 0.97263,1.61399 1.57173,3.42209 2.41122,5.10916 1.06764,2.14555 2.5292,4.09431 4.29,5.71999 -4.79711,-8.72631 -5.76525,-19.47235 -2.60509,-28.91555 2.21886,-6.63039 6.32524,-12.52803 8.32508,-19.22773 1.03727,-3.47497 1.49462,-7.12703 2.86,-10.48665 2.23626,-5.5025 6.68539,-9.73614 10.48665,-14.29999 2.99311,-3.59357 5.63252,-7.46914 8.10333,-11.43998 12.07773,-19.41009 20.29915,-42.02963 18.58998,-64.8266 -0.87816,-11.71289 -4.32246,-23.0551 -7.36697,-34.39944 -3.0445,-11.34434 -5.72653,-22.99226 -5.02635,-34.71714 0.79979,-13.39278 5.97317,-26.19837 7.14999,-39.56329 0.37807,-4.29368 0.33752,-8.64513 -0.44715,-12.8834 -0.78467,-4.23826 -2.33087,-8.36759 -4.79618,-11.90324 -3.92766,-5.63289 -10.05534,-9.51887 -16.6334,-11.4899 -6.57807,-1.97104 -13.59435,-2.13175 -20.41397,-1.32634 -13.63923,1.61081 -26.58992,6.96923 -40.17254,9.00291 -22.35805,3.3476 -44.91629,-2.44397 -67.20992,-6.19666 -22.78189,-3.83488 -46.62233,-5.79023 -66.73326,-17.15998 -10.7447,-6.07453 -20.04309,-14.66183 -31.34925,-19.61351 -5.65309,-2.47584 -11.82494,-3.99848 -17.98249,-3.58401 -6.15754,0.41446 -12.29827,2.89968 -16.44819,7.46754 z"
         id="path13338"
         transform="matrix(0.97259066,-0.06566236,0.0631767,0.93577302,-12.319926,74.82617)" />
      <path
         style="opacity:1;vector-effect:none;fill:#dec7db;fill-opacity:1;fill-rule:evenodd;stroke:none;stroke-width:1.4958365;stroke-linecap:butt;stroke-linejoin:miter;stroke-miterlimit:4;stroke-dasharray:none;stroke-dashoffset:0;stroke-opacity:1;paint-order:stroke fill markers"
         d="m 697.53294,715.84913 c 1.69791,1.57137 3.41129,3.1544 4.75665,5.03645 1.34537,1.88204 2.31309,4.10993 2.32148,6.42338 0.004,1.0525 -0.18923,2.09506 -0.2649,3.14484 -0.0757,1.04978 -0.0251,2.14331 0.43343,3.09066 0.37942,0.78385 1.0231,1.42366 1.76946,1.87236 0.74636,0.44869 1.59259,0.7139 2.45157,0.85723 1.71794,0.28668 3.47519,0.0975 5.21648,0.13537 2.48223,0.054 4.93452,0.57053 7.41518,0.6741 2.21875,0.0926 4.46244,-0.1506 6.57255,-0.84263 2.76404,-0.90649 5.28092,-2.60001 7.07814,-4.88728 2.13413,-2.71605 3.1947,-6.13692 5.22433,-8.93193 1.36183,-1.87537 3.19872,-3.46662 5.39286,-4.21317 1.60316,-0.54547 3.3402,-0.62272 5.01973,-0.40633 1.67954,0.21639 3.31007,0.71807 4.89771,1.30718 3.17529,1.17822 6.2704,2.72849 9.63168,3.14379 3.12927,0.38663 6.28602,-0.23755 9.43751,-0.33705 3.68794,-0.11643 7.42282,0.504 10.78573,2.02232 3.09451,1.39714 5.82951,3.53293 8.08929,6.06697 2.44611,2.74299 4.34209,5.93953 5.89844,9.26898 1.08136,2.31331 2.01034,4.70807 3.33552,6.89088 1.32518,2.1828 3.10596,4.18032 5.42788,5.24306 2.59693,1.18861 5.58162,1.09624 8.42635,0.84264 1.96579,-0.17524 3.92687,-0.41653 5.89844,-0.50558 1.69606,-0.0766 3.44691,-0.0303 5.0102,0.632 0.78165,0.33114 1.50491,0.81706 2.05989,1.45941 0.55497,0.64236 0.93562,1.44552 1.0192,2.29029 0.10064,1.01728 -0.22307,2.02232 -0.36351,3.03487 -0.0702,0.50627 -0.0943,1.02458 0.003,1.52634 0.0974,0.50175 0.3238,0.98847 0.69745,1.33723 0.31277,0.29194 0.72435,0.47817 1.15089,0.51158 0.42654,0.0334 0.865,-0.088 1.20848,-0.34305 0.31416,-0.23331 0.54326,-0.57085 0.67758,-0.93839 0.13432,-0.36755 0.17726,-0.76432 0.16058,-1.15528 -0.0334,-0.78193 -0.29784,-1.53225 -0.5011,-2.28803 -0.92863,-3.4529 -0.56293,-7.2382 1.01116,-10.44867 1.13327,-2.31138 2.84596,-4.29441 4.04464,-6.57255 1.78344,-3.38949 2.35002,-7.26266 3.37054,-10.95425 0.75953,-2.74748 1.78405,-5.43647 2.19085,-8.25782 0.80522,-5.58455 -0.85961,-11.21243 -1.01116,-16.8527 -0.0573,-2.13313 0.1,-4.29569 -0.36258,-6.37886 -0.23127,-1.04159 -0.621,-2.05751 -1.23279,-2.93164 -0.6118,-0.87413 -1.45468,-1.60186 -2.44927,-1.9881 -0.90367,-0.35094 -1.9078,-0.41056 -2.86195,-0.23923 -0.95416,0.17134 -1.85988,0.56727 -2.6756,1.09108 -1.63143,1.04762 -2.88579,2.57614 -4.10259,4.0856 -1.21681,1.50945 -2.45069,3.05018 -4.05733,4.13543 -0.80333,0.54262 -1.69617,0.96427 -2.64377,1.16877 -0.9476,0.20449 -1.95183,0.18584 -2.87083,-0.12273 -1.24451,-0.41786 -2.25468,-1.32741 -3.19301,-2.24554 -0.93833,-0.91812 -1.86818,-1.88637 -3.04249,-2.47322 -1.53261,-0.76591 -3.32991,-0.80227 -5.0306,-0.59451 -1.70069,0.20776 -3.37195,0.64226 -5.08102,0.76304 -3.60584,0.25482 -7.14938,-0.89316 -10.56157,-2.08647 -3.41218,-1.19331 -6.88946,-2.46288 -10.50429,-2.46376 -3.38763,-8.2e-4 -6.67465,1.11765 -9.79364,2.43974 -3.11898,1.3221 -6.16076,2.86647 -9.41843,3.79576 -4.883,1.39294 -10.06822,1.34857 -15.11619,0.79911 -4.37488,-0.47619 -8.70149,-1.32162 -13.0671,-1.87641 -7.04932,-0.89584 -14.37255,-1.07843 -20.83301,-4.03782 -3.81851,-1.74917 -7.16777,-4.40307 -10.98415,-6.15689 -1.90819,-0.87691 -3.94379,-1.52624 -6.03896,-1.66918 -2.09517,-0.14294 -4.258,0.24376 -6.06277,1.31752 -2.30046,1.36867 -3.87853,3.79508 -4.47314,6.40502 -0.59461,2.60994 -0.2587,5.38025 0.67356,7.88948 1.86451,5.01846 5.91003,8.86024 9.8392,12.49659 z"
         id="path13342"
         transform="matrix(1.0792174,-0.07286103,0.1113254,1.6489514,-135.03041,-439.63777)" />
      <path
         style="opacity:1;vector-effect:none;fill:#f59421;fill-opacity:1;fill-rule:evenodd;stroke:none;stroke-width:2;stroke-linecap:butt;stroke-linejoin:miter;stroke-miterlimit:4;stroke-dasharray:none;stroke-dashoffset:0;stroke-opacity:1;paint-order:stroke fill markers"
         d="m 808.90242,759.25606 c -0.46209,-1.70421 -0.51109,-3.52163 -0.11917,-5.24333 0.50214,-2.20587 1.75428,-4.25809 3.575,-5.60083 1.73295,-1.27801 3.9076,-1.87478 6.06017,-1.92803 2.15258,-0.0533 4.29117,0.41069 6.33315,1.09387 0.95748,0.32034 1.9035,0.69152 2.7721,1.20622 0.8686,0.5147 1.66094,1.17925 2.23289,2.01127 0.70854,1.03073 1.05101,2.27648 1.18141,3.52044 0.1304,1.24396 0.0604,2.49895 0.0103,3.74872 -0.075,1.8712 -0.10386,3.75966 0.23833,5.60083 0.50684,2.72709 1.80574,5.23901 3.2175,7.62666 2.00814,3.39629 4.27578,6.63276 6.31582,10.00998 4.77506,7.90495 8.34524,16.63818 14.41915,23.59498 0.71279,0.8164 1.46899,1.62196 1.92571,2.60481 0.22835,0.49143 0.3776,1.02458 0.39002,1.56633 0.0124,0.54175 -0.11682,1.09252 -0.40906,1.54885 -0.24422,0.38134 -0.59722,0.68899 -0.99914,0.89761 -0.40192,0.20862 -0.85154,0.31975 -1.30375,0.3436 -0.90443,0.0477 -1.79988,-0.24977 -2.59009,-0.69229 -1.58043,-0.88506 -2.79615,-2.33255 -4.40201,-3.17058 -1.16515,-0.60804 -2.55764,-0.86463 -3.81333,-0.47667 -0.66351,0.205 -1.26228,0.578 -1.82593,0.98367 -0.56365,0.40567 -1.1016,0.84849 -1.69,1.21733 -0.58841,0.36885 -1.23795,0.66514 -1.92836,0.73997 -0.34521,0.0374 -0.69795,0.0183 -1.03318,-0.0721 -0.33524,-0.0905 -0.6526,-0.25341 -0.91086,-0.48551 -0.32708,-0.29395 -0.5521,-0.6934 -0.66297,-1.11896 -0.11087,-0.42556 -0.11062,-0.87615 -0.0289,-1.30825 0.16348,-0.86421 0.6401,-1.63636 1.16853,-2.33945 0.69437,-0.92388 1.49189,-1.76582 2.19941,-2.67967 0.70752,-0.91384 1.33273,-1.91933 1.61392,-3.04032 0.42525,-1.6953 0.007,-3.54453 -0.95333,-5.005 -0.42279,-0.64309 -0.95404,-1.22608 -1.60919,-1.62993 -0.65516,-0.40385 -1.44157,-0.619 -2.20414,-0.51506 -0.87326,0.11903 -1.6525,0.64464 -2.23158,1.30903 -0.57907,0.6644 -0.98039,1.46287 -1.34342,2.26596 -0.73319,1.62193 -1.34619,3.32009 -2.38333,4.76666 -0.91942,1.28238 -2.14065,2.32093 -3.09833,3.575 -0.8228,1.07745 -1.44049,2.30197 -1.90666,3.57499 -0.18267,0.49884 -0.34387,1.00861 -0.59447,1.47703 -0.25059,0.46842 -0.60207,0.90046 -1.07387,1.14464 -0.56416,0.29198 -1.2621,0.28149 -1.84228,0.0228 -0.58017,-0.2587 -1.04233,-0.74919 -1.31983,-1.32062 -0.2775,-0.57142 -0.37785,-1.2192 -0.34646,-1.85366 0.0314,-0.63447 0.19051,-1.25747 0.41024,-1.8535 0.2229,-0.60465 0.51106,-1.19501 0.59708,-1.83366 0.043,-0.31933 0.0334,-0.64907 -0.0607,-0.95726 -0.094,-0.30819 -0.27628,-0.59396 -0.53643,-0.78407 -0.25816,-0.18865 -0.58195,-0.27554 -0.90167,-0.27919 -0.31972,-0.004 -0.63634,0.072 -0.93578,0.18413 -0.59888,0.22421 -1.13631,0.59222 -1.73754,0.81006 -0.64142,0.2324 -1.33246,0.28584 -2.01418,0.31218 -0.68171,0.0263 -1.369,0.0282 -2.03748,0.16448 -1.08921,0.22202 -2.07651,0.79031 -2.98874,1.42554 -0.91223,0.63523 -1.77343,1.347 -2.73126,1.91113 -2.89255,1.70362 -6.45137,1.92487 -9.77165,1.42999 -2.4981,-0.37234 -4.92315,-1.11878 -7.38833,-1.66833 -2.83068,-0.63103 -5.71161,-1.00184 -8.57999,-1.43 -2.85639,-0.42637 -5.83624,-0.90144 -8.57999,0 -0.74671,0.24533 -1.46052,0.58917 -2.21981,0.79221 -0.37965,0.10153 -0.77086,0.16735 -1.16384,0.16454 -0.39297,-0.003 -0.78844,-0.0758 -1.14468,-0.24175 -0.39352,-0.18329 -0.73323,-0.47929 -0.97169,-0.84203 -0.23847,-0.36275 -0.37538,-0.79095 -0.39523,-1.22461 -0.0199,-0.43365 0.077,-0.87164 0.27457,-1.25818 0.19758,-0.38654 0.49513,-0.72095 0.85402,-0.96517 0.56402,-0.38381 1.24885,-0.53415 1.90666,-0.715 1.79206,-0.49269 3.51469,-1.27284 5.005,-2.38333 1.63323,-1.21699 2.96038,-2.80856 4.05166,-4.52833 0.44406,-0.6998 0.86189,-1.45613 0.91297,-2.28335 0.0255,-0.41362 -0.0457,-0.83797 -0.24054,-1.20369 -0.19488,-0.36572 -0.51877,-0.66852 -0.91076,-0.80295 -0.2926,-0.10034 -0.61031,-0.10534 -0.91758,-0.0697 -0.30728,0.0356 -0.60846,0.11037 -0.91266,0.16651 -0.30419,0.0561 -0.6158,0.0937 -0.92257,0.054 -0.30676,-0.0398 -0.61087,-0.16318 -0.82219,-0.38907 -0.17939,-0.19176 -0.28322,-0.45264 -0.28357,-0.71523 -3.6e-4,-0.26259 0.10301,-0.52412 0.28357,-0.71477 0.15667,-0.16542 0.36609,-0.27541 0.58605,-0.33478 0.21997,-0.0594 0.45069,-0.0702 0.67815,-0.0571 0.45492,0.0262 0.90186,0.14633 1.35747,0.15359 0.51026,0.008 1.01447,-0.12636 1.48543,-0.3229 0.47096,-0.19654 0.9133,-0.45448 1.35735,-0.70598 0.44405,-0.25149 0.89374,-0.49839 1.37416,-0.67049 0.48043,-0.17211 0.99631,-0.26769 1.50305,-0.20729 0.80488,0.0959 1.51604,0.57383 2.10763,1.12797 0.59158,0.55414 1.09774,1.1959 1.7057,1.73202 1.10349,0.9731 2.50725,1.56135 3.94746,1.86201 1.44022,0.30067 2.92361,0.32765 4.3942,0.28299 3.23878,-0.0983 6.49354,-0.54624 9.53332,-1.66833 1.49649,-0.5524 2.94284,-1.27173 4.19951,-2.25429 1.25666,-0.98256 2.32035,-2.23858 2.95048,-3.70404 0.57241,-1.33123 0.77421,-2.7972 0.78574,-4.24623 0.0115,-1.44903 -0.16099,-2.89227 -0.30907,-4.33376 -0.33063,-3.21851 -0.55083,-6.49699 -1.66834,-9.53332 -0.66551,-1.80822 -1.64075,-3.50283 -2.14499,-5.36249 z"
         id="path13350"
         transform="rotate(-3.8623399,564.24305,500.94525)" />
      <path
         style="opacity:1;vector-effect:none;fill:#f59421;fill-opacity:1;fill-rule:evenodd;stroke:none;stroke-width:2;stroke-linecap:butt;stroke-linejoin:miter;stroke-miterlimit:4;stroke-dasharray:none;stroke-dashoffset:0;stroke-opacity:1;paint-order:stroke fill markers"
         d="m 617.81971,782.08021 c -0.17669,-0.20256 -0.29653,-0.45252 -0.35408,-0.71508 -0.0575,-0.26256 -0.0536,-0.53727 0.001,-0.80043 0.1094,-0.52633 0.41811,-0.99643 0.80526,-1.3694 0.77429,-0.74595 1.82646,-1.11442 2.74976,-1.66531 0.48988,-0.29229 0.94939,-0.64102 1.33323,-1.06302 0.38383,-0.422 0.69082,-0.91937 0.85762,-1.46489 0.16668,-0.54516 0.19044,-1.12199 0.22311,-1.69113 0.0327,-0.56913 0.0775,-1.14745 0.28247,-1.67941 0.19847,-0.51518 0.54656,-0.97193 0.99149,-1.29879 0.44494,-0.32687 0.98527,-0.52255 1.53641,-0.555 0.47822,-0.0281 0.95664,0.064 1.41524,0.20249 0.45859,0.13849 0.9017,0.32309 1.35213,0.48619 0.45043,0.16311 0.91232,0.30564 1.3888,0.3552 0.47648,0.0496 0.9714,0.002 1.40522,-0.20125 0.36889,-0.17279 0.67755,-0.44867 0.98985,-0.71023 0.31229,-0.26155 0.64333,-0.51757 1.03248,-0.63798 0.42106,-0.13029 0.88368,-0.0893 1.29739,0.0627 0.41372,0.15202 0.78206,0.40972 1.10775,0.7067 0.65139,0.59394 1.14443,1.34679 1.80803,1.92706 0.64928,0.56774 1.44043,0.95067 2.25099,1.24543 0.81056,0.29476 1.64841,0.50751 2.46776,0.77689 2.25044,0.73988 4.34156,1.89984 6.57255,2.69643 2.32297,0.82943 4.78175,1.2566 7.24666,1.34822 2.58309,0.096 5.17313,-0.17243 7.75224,0 2.19942,0.14704 4.4539,0.60859 6.57255,0 1.74188,-0.50037 3.20776,-1.67841 4.88728,-2.35938 1.27787,-0.51812 2.65266,-0.73821 3.99403,-1.05778 1.34137,-0.31958 2.69478,-0.76087 3.75821,-1.63865 1.20864,-0.99764 1.92359,-2.45462 2.86496,-3.70759 1.3632,-1.81444 3.21917,-3.21765 4.55022,-5.05581 1.44618,-1.99716 2.19965,-4.40251 3.37054,-6.57255 1.73288,-3.21159 4.36161,-5.87417 6.06697,-9.10046 1.25814,-2.38021 1.99814,-5.03896 3.53907,-7.24665 0.59084,-0.8465 1.29015,-1.61205 1.89821,-2.44625 0.60807,-0.83421 1.13236,-1.76012 1.3038,-2.77809 0.15091,-0.89608 0.0256,-1.84278 0.33705,-2.69643 0.29637,-0.81229 0.97567,-1.45467 1.76792,-1.80109 0.79224,-0.34641 1.68764,-0.41425 2.54424,-0.29633 1.71318,0.23584 3.23538,1.16793 4.7883,1.92889 0.94304,0.46211 1.91979,0.86849 2.94301,1.10492 1.02322,0.23643 2.09794,0.29873 3.12396,0.0748 1.73026,-0.37768 3.17897,-1.52163 4.7877,-2.26218 0.80437,-0.37027 1.66947,-0.64349 2.55494,-0.65062 0.88547,-0.007 1.79604,0.27423 2.43192,0.89048 0.37047,0.35904 0.63696,0.8205 0.78301,1.3153 0.14606,0.4948 0.17337,1.02189 0.10019,1.53258 -0.14635,1.02138 -0.68775,1.95641 -1.38878,2.71351 -0.80412,0.86843 -1.80902,1.52056 -2.79793,2.17081 -0.98891,0.65025 -1.98563,1.31884 -2.76346,2.21089 -1.0462,1.19982 -1.6292,2.72365 -2.19085,4.21317 -0.88007,2.33401 -1.75963,4.67346 -2.86496,6.90961 -1.20585,2.4395 -2.68951,4.78052 -3.37054,7.41518 -0.50011,1.93472 -0.53721,4.02891 0.16853,5.89844 0.80134,2.12278 2.4853,3.80926 3.37054,5.89845 0.37095,0.87544 0.59425,1.80492 0.8893,2.70876 0.29505,0.90385 0.67354,1.80171 1.30155,2.51557 0.82362,0.93622 2.00551,1.47704 3.19056,1.86499 1.18505,0.38796 2.4154,0.65238 3.55051,1.16849 1.29038,0.58671 2.41323,1.47799 3.55254,2.32137 1.1393,0.84339 2.33442,1.65968 3.69412,2.06033 1.46263,0.43098 3.03254,0.35602 4.50926,0.73592 0.73837,0.18995 1.45871,0.50029 2.03307,1.00165 0.57436,0.50137 0.99175,1.20924 1.04138,1.97003 0.0335,0.51293 -0.0984,1.02508 -0.29743,1.49899 -0.19906,0.47392 -0.46446,0.91642 -0.71373,1.36596 -0.1769,0.31903 -0.3467,0.6434 -0.55893,0.94011 -0.21223,0.2967 -0.4707,0.56744 -0.78928,0.74516 -0.28206,0.15735 -0.60378,0.23695 -0.92629,0.25444 -0.3225,0.0175 -0.64626,-0.0257 -0.95999,-0.10238 -0.62747,-0.15346 -1.21365,-0.43854 -1.82132,-0.65764 -1.97823,-0.71328 -4.13296,-0.71322 -6.23549,-0.6741 -0.9851,0.0183 -1.97431,0.0432 -2.95209,-0.0781 -0.97777,-0.12128 -1.95196,-0.39578 -2.77783,-0.93308 -0.53867,-0.35045 -1.0013,-0.8033 -1.4762,-1.23625 -0.4749,-0.43295 -0.97369,-0.85405 -1.55728,-1.12312 -0.85337,-0.39346 -1.82873,-0.43383 -2.76468,-0.3498 -0.93594,0.084 -1.85923,0.28504 -2.79671,0.3498 -0.85609,0.0591 -1.73846,-6.5e-4 -2.5279,-0.33706 -0.68485,-0.29184 -1.26759,-0.77694 -1.81943,-1.2766 -0.55184,-0.49967 -1.08877,-1.02461 -1.71964,-1.41983 -0.74958,-0.46959 -1.62228,-0.74294 -2.5062,-0.77552 -0.88393,-0.0326 -1.77678,0.17675 -2.54961,0.607 -0.65518,0.36476 -1.22657,0.89184 -1.60014,1.54204 -0.37357,0.6502 -0.54162,1.42525 -0.42218,2.16555 0.11784,0.7304 0.50544,1.39706 0.99909,1.94815 0.49364,0.55108 1.09165,0.99752 1.69734,1.42239 1.10101,0.77231 2.24324,1.48746 3.30558,2.31216 1.06234,0.82469 2.05181,1.76972 2.76139,2.91217 0.41309,0.66508 0.73058,1.40533 0.8021,2.18498 0.0715,0.77965 -0.12332,1.6029 -0.63357,2.19672 -0.45427,0.52867 -1.12891,0.84149 -1.82005,0.93196 -0.69114,0.0905 -1.39785,-0.0285 -2.05607,-0.25785 -1.87924,-0.65482 -3.32127,-2.14255 -4.88728,-3.37054 -0.63209,-0.49566 -1.29397,-0.95481 -1.8945,-1.48827 -0.60053,-0.53346 -1.14423,-1.15075 -1.47604,-1.88227 -0.27907,-0.61524 -0.39885,-1.28832 -0.58077,-1.93894 -0.18192,-0.65061 -0.44305,-1.30667 -0.93597,-1.76865 -0.5407,-0.50676 -1.29196,-0.71727 -2.02233,-0.84264 -3.66723,-0.62947 -7.38592,0.46232 -10.95425,1.51675 -3.4638,1.02354 -6.93631,2.02301 -10.44867,2.86495 -3.49662,0.83817 -7.037,1.52052 -10.61719,1.8538 -2.91362,0.27123 -5.84369,0.31051 -8.7634,0.50558 -4.78581,0.31975 -9.53712,1.05763 -14.32479,1.34822 -0.86484,0.0525 -1.76285,0.0989 -2.52791,0.50558 -0.8155,0.43348 -1.3874,1.22984 -2.19085,1.68527 -0.51205,0.29025 -1.10156,0.4297 -1.68978,0.45058 -0.58823,0.0209 -1.17628,-0.0735 -1.74427,-0.22788 -1.13597,-0.30876 -2.19308,-0.8532 -3.30702,-1.23386 -1.00886,-0.34475 -2.06625,-0.55591 -3.03495,-1.00119 -0.48435,-0.22264 -0.94539,-0.50476 -1.3325,-0.87124 -0.38711,-0.36648 -0.69866,-0.82055 -0.85689,-1.32959 -0.0979,-0.31487 -0.13618,-0.65106 -0.0857,-0.9769 0.0505,-0.32585 0.1927,-0.64068 0.42276,-0.87689 0.21528,-0.22103 0.5004,-0.36703 0.79943,-0.44308 0.29903,-0.0761 0.6121,-0.0848 0.91942,-0.0574 0.61465,0.0549 1.20838,0.25149 1.82021,0.33195 0.72136,0.0949 1.46738,0.024 2.14836,-0.23217 0.68097,-0.25618 1.29432,-0.70021 1.72776,-1.28457 0.49368,-0.66557 0.74272,-1.49822 0.7529,-2.32684 0.0102,-0.82861 -0.2113,-1.65197 -0.58437,-2.39192 -0.46934,-0.93089 -1.16678,-1.72485 -1.87532,-2.48958 -0.70854,-0.76474 -1.44114,-1.51814 -2.0008,-2.3977 -0.15137,-0.23789 -0.29319,-0.48865 -0.50558,-0.6741 -0.23136,-0.20201 -0.53355,-0.31197 -0.83884,-0.34556 -0.3053,-0.0336 -0.61471,0.005 -0.91408,0.074 -0.59874,0.13729 -1.17363,0.39377 -1.78615,0.44012 -0.44769,0.0339 -0.8985,-0.0471 -1.3251,-0.18702 -0.4266,-0.13995 -0.83163,-0.338 -1.23056,-0.54398 -0.79788,-0.41194 -1.60642,-0.86734 -2.50015,-0.95427 -0.70085,-0.0682 -1.40174,0.0967 -2.10517,0.12868 -0.35171,0.016 -0.70825,-0.002 -1.04721,-0.0971 -0.33895,-0.0952 -0.66083,-0.27181 -0.89226,-0.53713 z"
         id="path13346"
         transform="rotate(-3.8623399,491.09148,701.49135)" />
      <path
         style="opacity:0.56199999;vector-effect:none;fill:#000000;fill-opacity:1;fill-rule:evenodd;stroke:none;stroke-width:2;stroke-linecap:butt;stroke-linejoin:miter;stroke-miterlimit:4;stroke-dasharray:none;stroke-dashoffset:0;stroke-opacity:1;paint-order:stroke fill markers"
         d="m 624.13471,770.81521 c -1.3784,-0.22235 -2.79243,-0.22235 -4.17083,0 -1.50202,0.24229 -2.96102,0.74889 -4.28999,1.48958 -1.41776,0.79017 -2.67403,1.83498 -3.9325,2.86 -1.1495,0.93626 -2.33256,1.88846 -3.09833,3.15791 -0.73872,1.22461 -1.03964,2.68133 -1.01291,4.11125 0.0242,1.2938 0.30509,2.58507 0.17875,3.87291 -0.0549,0.55942 -0.18625,1.11056 -0.21461,1.67195 -0.0142,0.28069 -0.002,0.56408 0.0574,0.83872 0.0597,0.27464 0.16831,0.54082 0.33594,0.76641 0.0386,0.052 0.0805,0.10197 0.12968,0.14417 0.0491,0.0422 0.1059,0.0765 0.16823,0.0942 0.11395,0.0322 0.23911,0.006 0.3417,-0.0535 0.10259,-0.0592 0.18485,-0.14836 0.25413,-0.2444 0.17208,-0.23857 0.27092,-0.52219 0.34192,-0.80765 0.071,-0.28546 0.11646,-0.57703 0.19433,-0.86069 0.2896,-1.05494 1.00302,-1.93201 1.66834,-2.80041 0.69644,-0.90901 1.36087,-1.84669 2.14499,-2.68125 0.91502,-0.97388 1.9873,-1.79844 3.15792,-2.44291 0.50407,-0.27751 1.03767,-0.52532 1.60874,-0.59583 0.65174,-0.0805 1.30973,0.0746 1.96625,0.0596 0.71019,-0.0162 1.4092,-0.23406 2.02657,-0.58546 0.61738,-0.35141 1.15507,-0.83354 1.60801,-1.38079 0.53147,-0.64214 0.95168,-1.38041 1.19873,-2.17651 0.24705,-0.7961 0.31825,-1.65041 0.17169,-2.47098 -0.12624,-0.70679 -0.41367,-1.3843 -0.83417,-1.96625 z"
         id="path13354"
         transform="rotate(-3.8623399,491.09148,701.49135)" />
      <path
         style="opacity:0.56199999;vector-effect:none;fill:#000000;fill-opacity:1;fill-rule:evenodd;stroke:none;stroke-width:2;stroke-linecap:butt;stroke-linejoin:miter;stroke-miterlimit:4;stroke-dasharray:none;stroke-dashoffset:0;stroke-opacity:1;paint-order:stroke fill markers"
         d="m 630.20644,783.89188 c -0.52583,-0.1526 -1.08877,-0.1387 -1.62727,-0.0397 -0.5385,0.099 -1.05785,0.28044 -1.57474,0.46102 -1.85371,0.64761 -3.77126,1.33084 -5.18221,2.69644 -1.41245,1.36705 -2.15798,3.2638 -2.86495,5.09793 -0.72758,1.88762 -1.46785,3.83364 -1.43248,5.85632 0.0316,1.80772 0.68123,3.53929 1.05329,5.30859 0.0844,0.40129 0.15615,0.81038 0.32823,1.1826 0.0861,0.1861 0.19727,0.36185 0.33974,0.50931 0.14247,0.14745 0.31705,0.26606 0.51172,0.33042 0.1437,0.0475 0.29868,0.065 0.4478,0.0391 0.14912,-0.0259 0.2919,-0.0966 0.39483,-0.2076 0.0794,-0.0856 0.13352,-0.19284 0.16503,-0.30528 0.0315,-0.11244 0.0411,-0.23016 0.0384,-0.3469 -0.005,-0.23349 -0.0587,-0.46322 -0.0771,-0.69604 -0.0383,-0.48481 0.0766,-0.97104 0.25295,-1.42427 0.17631,-0.45323 0.41326,-0.87985 0.63181,-1.31429 0.28269,-0.56195 0.53602,-1.13989 0.85983,-1.67919 0.32382,-0.53929 0.72523,-1.0447 1.24676,-1.39642 0.74158,-0.50012 1.66604,-0.6534 2.44364,-1.09543 0.30243,-0.17192 0.57886,-0.38544 0.86958,-0.57649 0.29073,-0.19105 0.60189,-0.36199 0.94209,-0.43467 0.49282,-0.10528 1.007,0.004 1.48361,0.16736 0.47661,0.16369 0.93513,0.38238 1.42348,0.50675 0.70306,0.17906 1.45562,0.15413 2.148,-0.0626 0.69238,-0.21672 1.323,-0.62364 1.81238,-1.15924 0.74767,-0.81828 1.15178,-1.92542 1.17969,-3.03349 0.0357,-1.41879 -0.52193,-2.80647 -1.34822,-3.96038 -0.51106,-0.7137 -1.12203,-1.34904 -1.68527,-2.02232 -0.48562,-0.5805 -0.94064,-1.19445 -1.51674,-1.68527 -0.3714,-0.31642 -0.79537,-0.58025 -1.26395,-0.71624 z"
         id="path13358"
         transform="rotate(-3.8623399,491.09148,701.49135)" />
      <path
         style="opacity:0.56199999;vector-effect:none;fill:#ffffff;fill-opacity:1;fill-rule:evenodd;stroke:none;stroke-width:2;stroke-linecap:butt;stroke-linejoin:miter;stroke-miterlimit:4;stroke-dasharray:none;stroke-dashoffset:0;stroke-opacity:1;paint-order:stroke fill markers"
         d="m 629.95365,789.91671 c -0.62666,-0.55037 -1.45436,-0.86657 -2.28836,-0.87422 -0.834,-0.008 -1.66735,0.29333 -2.304,0.83212 -0.47015,0.39788 -0.82661,0.91068 -1.17228,1.42045 -0.34567,0.50977 -0.6909,1.02837 -1.14497,1.44451 -0.76596,0.70198 -1.79791,1.07236 -2.5279,1.81167 -0.72883,0.73814 -1.08467,1.78684 -1.13756,2.82282 -0.0662,1.29683 0.30404,2.57802 0.33706,3.87612 0.008,0.30133 -0.002,0.61094 0.10204,0.894 0.0518,0.14153 0.13254,0.27441 0.24561,0.37406 0.11307,0.0996 0.26001,0.16417 0.41072,0.16442 0.10881,1.8e-4 0.2167,-0.0329 0.3098,-0.0892 0.0931,-0.0563 0.17163,-0.13533 0.2323,-0.22566 0.12134,-0.18065 0.16985,-0.4016 0.18112,-0.61892 0.0113,-0.21733 -0.0121,-0.43475 -0.0222,-0.65214 -0.0101,-0.21739 -0.006,-0.43894 0.0574,-0.64704 0.0944,-0.30875 0.31366,-0.56451 0.55586,-0.77802 0.2422,-0.21351 0.51215,-0.39422 0.75022,-0.61233 0.4486,-0.41098 0.76972,-0.94083 1.17969,-1.39035 0.56824,-0.62307 1.29808,-1.08066 2.06446,-1.43248 1.11929,-0.51383 2.32546,-0.81474 3.4548,-1.30608 0.93248,-0.40569 1.82946,-0.95904 2.44364,-1.76953 0.27733,-0.36597 0.49419,-0.78507 0.5791,-1.23633 0.0849,-0.45126 0.0304,-0.93647 -0.19992,-1.33371 -0.2027,-0.3496 -0.53851,-0.6198 -0.9234,-0.74296 -0.38489,-0.12316 -0.81518,-0.0981 -1.18318,0.0688 z"
         id="path13362"
         transform="rotate(-3.8623399,491.09148,701.49135)" />
      <path
         style="opacity:0.56199999;vector-effect:none;fill:#ffffff;fill-opacity:1;fill-rule:evenodd;stroke:none;stroke-width:2;stroke-linecap:butt;stroke-linejoin:miter;stroke-miterlimit:4;stroke-dasharray:none;stroke-dashoffset:0;stroke-opacity:1;paint-order:stroke fill markers"
         d="m 619.9263,789.91671 c -0.0134,0.56699 -0.19095,1.12914 -0.50559,1.60101 -0.11847,0.17767 -0.25884,0.34908 -0.30973,0.55647 -0.0255,0.10369 -0.0266,0.21526 0.0103,0.31545 0.0185,0.0501 0.0463,0.0969 0.0829,0.13578 0.0366,0.0389 0.082,0.0697 0.13221,0.0877 0.0581,0.0208 0.12176,0.0242 0.18262,0.0139 0.0608,-0.0103 0.119,-0.0339 0.17222,-0.0652 0.10645,-0.0625 0.19223,-0.15404 0.27714,-0.24364 0.36456,-0.38471 0.74616,-0.76282 1.01116,-1.22182 0.21234,-0.3678 0.34323,-0.77667 0.53533,-1.15542 0.0961,-0.18938 0.20805,-0.37197 0.34871,-0.53105 0.14066,-0.15908 0.31109,-0.29444 0.50631,-0.37798 0.19124,-0.0818 0.39975,-0.11193 0.60349,-0.15392 0.20373,-0.042 0.41067,-0.0993 0.57619,-0.22527 0.15999,-0.12178 0.26928,-0.29929 0.3483,-0.48418 0.079,-0.18489 0.13109,-0.38001 0.19942,-0.56911 0.0948,-0.26229 0.22285,-0.52281 0.22049,-0.80169 -0.001,-0.13944 -0.0374,-0.28124 -0.11975,-0.39376 -0.0412,-0.0563 -0.0935,-0.10462 -0.1542,-0.13901 -0.0607,-0.0344 -0.12962,-0.0546 -0.19933,-0.0559 -0.0778,-0.001 -0.15496,0.0206 -0.22444,0.0557 -0.0695,0.0351 -0.13181,0.083 -0.18965,0.1351 -0.11569,0.1042 -0.21584,0.22678 -0.34428,0.31479 -0.21358,0.14635 -0.48291,0.18272 -0.71624,0.29493 -0.3523,0.16942 -0.59687,0.49651 -0.84264,0.8005 -0.27585,0.3412 -0.57008,0.66731 -0.84263,1.01116 -0.27606,0.34828 -0.52955,0.71444 -0.75837,1.09542 z"
         id="path13366"
         transform="rotate(-3.8623399,491.09148,701.49135)" />
      <path
         style="opacity:0.56199999;vector-effect:none;fill:#000000;fill-opacity:1;fill-rule:evenodd;stroke:none;stroke-width:2;stroke-linecap:butt;stroke-linejoin:miter;stroke-miterlimit:4;stroke-dasharray:none;stroke-dashoffset:0;stroke-opacity:1;paint-order:stroke fill markers"
         d="m 706.00142,791.18067 c -0.0466,-0.0963 -0.0877,-0.19517 -0.12639,-0.29493 -0.34659,-0.89457 -0.49249,-1.88402 -0.29492,-2.82282 0.21569,-1.0249 0.8497,-1.95645 1.7274,-2.52791 0.86048,-0.56025 1.93138,-0.76727 2.94922,-0.63197 0.8084,0.10746 1.5795,0.42042 2.28381,0.83151 0.70432,0.41109 1.34668,0.91951 1.97149,1.4436 1.12752,0.94578 2.20967,1.95183 3.15988,3.07562 1.18909,1.40632 2.16757,2.99762 2.82283,4.71875 0.54469,1.43071 0.86348,2.94222 1.01116,4.46597 0.12907,1.33177 0.12884,2.67484 0.29492,4.00251 0.0563,0.45036 0.13182,0.89907 0.15541,1.35233 0.0236,0.45326 -0.006,0.91542 -0.15541,1.3441 -0.0477,0.13709 -0.10818,0.27145 -0.19762,0.38576 -0.0894,0.1143 -0.21009,0.20793 -0.35009,0.24622 -0.12847,0.0351 -0.2677,0.0218 -0.39208,-0.0258 -0.12438,-0.0476 -0.23447,-0.12827 -0.32683,-0.22423 -0.18474,-0.1919 -0.29779,-0.43951 -0.41865,-0.67689 -0.3901,-0.76616 -0.89433,-1.47221 -1.47461,-2.10659 -0.48999,-0.53567 -1.03562,-1.02279 -1.47461,-1.601 -0.54223,-0.71419 -0.90724,-1.54834 -1.43248,-2.27512 -0.49569,-0.68588 -1.12483,-1.26348 -1.76953,-1.81166 -0.85075,-0.72339 -1.73704,-1.40497 -2.57004,-2.14872 -0.77996,-0.69639 -1.51455,-1.44835 -2.35937,-2.06445 -0.75682,-0.55193 -1.60025,-0.99356 -2.27512,-1.64314 -0.30515,-0.29371 -0.57384,-0.62994 -0.75837,-1.01116 z"
         id="path13370"
         transform="rotate(-3.8623399,491.09148,701.49135)" />
      <path
         style="opacity:0.56199999;vector-effect:none;fill:#ffffff;fill-opacity:1;fill-rule:evenodd;stroke:none;stroke-width:2;stroke-linecap:butt;stroke-linejoin:miter;stroke-miterlimit:4;stroke-dasharray:none;stroke-dashoffset:0;stroke-opacity:1;paint-order:stroke fill markers"
         d="m 709.45622,787.97866 c 0.48301,0.1475 0.9191,0.4449 1.23277,0.84072 0.31367,0.39581 0.50355,0.88832 0.53677,1.39226 0.0182,0.27582 -0.0102,0.55697 -0.10562,0.81641 -0.0954,0.25943 -0.26011,0.4964 -0.48423,0.6582 -0.17716,0.12789 -0.38868,0.20672 -0.60588,0.23045 -0.21721,0.0237 -0.43965,-0.007 -0.64378,-0.0851 -0.40827,-0.15582 -0.73354,-0.49925 -0.89906,-0.90368 -0.15973,-0.39028 -0.17672,-0.82133 -0.22994,-1.23966 -0.0266,-0.20916 -0.063,-0.41814 -0.13105,-0.6177 -0.0681,-0.19957 -0.16896,-0.39027 -0.31311,-0.54415 -0.14208,-0.15167 -0.33018,-0.26665 -0.53636,-0.29275 -0.10308,-0.013 -0.20943,-0.004 -0.30726,0.0315 -0.0978,0.035 -0.18685,0.0959 -0.25181,0.177 -0.0741,0.0925 -0.1145,0.20653 -0.16378,0.31429 -0.0246,0.0539 -0.0519,0.10687 -0.0867,0.15481 -0.0348,0.0479 -0.0775,0.0909 -0.12869,0.12075 -0.0599,0.035 -0.13043,0.0511 -0.19977,0.0478 -0.0693,-0.003 -0.13741,-0.0256 -0.19649,-0.0621 -0.11818,-0.0729 -0.19707,-0.20035 -0.22725,-0.33588 -0.0302,-0.13552 -0.0149,-0.27834 0.0258,-0.41108 0.0407,-0.13275 0.10593,-0.25663 0.17634,-0.3763 0.29978,-0.50948 0.69694,-0.95371 1.09542,-1.39035 0.18134,-0.19871 0.36589,-0.39867 0.58985,-0.54771 0.37948,-0.25255 0.84904,-0.34131 1.30479,-0.3325 0.45575,0.009 0.9042,0.10871 1.34951,0.20611 0.83581,0.18281 1.68512,0.36258 2.44364,0.75837 0.99389,0.5186 1.76329,1.3703 2.57003,2.14872 1.12973,1.09008 2.39904,2.10122 3.11775,3.49693 0.49879,0.96862 0.69779,2.06127 1.09543,3.07562 0.2243,0.57217 0.51147,1.11842 0.72758,1.69373 0.21611,0.57532 0.36094,1.19352 0.28358,1.8032 -0.0489,0.3853 -0.18528,0.75791 -0.20491,1.1458 -0.01,0.19395 0.0107,0.39193 0.0837,0.57185 0.0731,0.17992 0.20196,0.3409 0.37395,0.43107 0.0836,0.0438 0.17643,0.0709 0.25279,0.12639 0.10525,0.0765 0.16841,0.20035 0.19581,0.32752 0.0274,0.12717 0.0226,0.25886 0.0148,0.38872 -0.0161,0.27109 -0.045,0.54562 -0.14521,0.79803 -0.0501,0.12621 -0.11796,0.246 -0.20648,0.34897 -0.0885,0.10297 -0.19806,0.18885 -0.32242,0.24335 -0.24054,0.10542 -0.52224,0.0865 -0.76865,-0.004 -0.2464,-0.0909 -0.46258,-0.2482 -0.66383,-0.41694 -0.19845,-0.16639 -0.38705,-0.3471 -0.53876,-0.55699 -0.15171,-0.20988 -0.26586,-0.45079 -0.30387,-0.70696 -0.0109,-0.0738 -0.0156,-0.14867 -0.0314,-0.22161 -0.0158,-0.0729 -0.0439,-0.14531 -0.095,-0.19971 -0.0354,-0.0377 -0.0806,-0.0653 -0.1289,-0.0839 -0.0483,-0.0185 -0.0995,-0.0282 -0.15102,-0.0331 -0.10293,-0.01 -0.2069,-6.7e-4 -0.30992,-0.009 -0.2145,-0.0182 -0.41852,-0.11477 -0.58216,-0.25464 -0.16365,-0.13986 -0.28849,-0.32138 -0.37948,-0.51647 -0.18199,-0.39019 -0.23026,-0.82674 -0.30231,-1.25121 -0.0435,-0.25652 -0.0968,-0.51441 -0.0842,-0.7743 0.006,-0.12994 0.0294,-0.25978 0.077,-0.38084 0.0476,-0.12107 0.1204,-0.23327 0.21783,-0.31948 0.12172,-0.10772 0.27723,-0.17123 0.43575,-0.20715 0.15852,-0.0359 0.32156,-0.046 0.4836,-0.0587 0.16205,-0.0127 0.32514,-0.0283 0.48088,-0.0748 0.15575,-0.0465 0.30526,-0.12615 0.41144,-0.24922 0.0845,-0.0979 0.1386,-0.2205 0.16101,-0.34788 0.0224,-0.12737 0.0137,-0.25934 -0.0182,-0.38465 -0.064,-0.25063 -0.21797,-0.46976 -0.39556,-0.65782 -0.50231,-0.53192 -1.19484,-0.84658 -1.7274,-1.34821 -0.69407,-0.65375 -1.06646,-1.57488 -1.34822,-2.48577 -0.14981,-0.48433 -0.28115,-0.97789 -0.50558,-1.43248 -0.32667,-0.66167 -0.85641,-1.22951 -1.51674,-1.55888 -0.35135,-0.17525 -0.73223,-0.28151 -1.10025,-0.41834 -0.36802,-0.13684 -0.73307,-0.31089 -1.00634,-0.59282 -0.17439,-0.17991 -0.30509,-0.39736 -0.4692,-0.58669 -0.0821,-0.0947 -0.17302,-0.18267 -0.27773,-0.25145 -0.1047,-0.0688 -0.22388,-0.11794 -0.34849,-0.13089 -0.11104,-0.0115 -0.22491,0.006 -0.32744,0.0503 -0.10254,0.0442 -0.19353,0.11462 -0.26241,0.20248 -0.13083,0.16688 -0.17654,0.39716 -0.11937,0.60136 0.0572,0.2042 0.21582,0.37726 0.41429,0.45194 z"
         id="path13374"
         transform="rotate(-3.8623399,491.09148,701.49135)" />
      <path
         style="opacity:0.56199999;vector-effect:none;fill:#000000;fill-opacity:1;fill-rule:evenodd;stroke:none;stroke-width:2;stroke-linecap:butt;stroke-linejoin:miter;stroke-miterlimit:4;stroke-dasharray:none;stroke-dashoffset:0;stroke-opacity:1;paint-order:stroke fill markers"
         d="m 744.90999,788.77956 c 0.28117,1.10798 1.0307,2.08898 2.02583,2.65146 0.37084,0.20961 0.77067,0.36206 1.1563,0.54304 0.38563,0.18097 0.76395,0.39567 1.05648,0.70533 0.14626,0.15483 0.26958,0.33267 0.3526,0.52882 0.083,0.19614 0.12501,0.41094 0.11036,0.62343 -0.0147,0.21249 -0.0872,0.42226 -0.21624,0.59172 -0.12903,0.16946 -0.31544,0.29671 -0.52304,0.34432 -0.2642,0.0606 -0.53841,-0.007 -0.80438,-0.0596 -0.5114,-0.10052 -1.03207,-0.14333 -1.54916,-0.20854 -0.39853,-0.0503 -0.79525,-0.11386 -1.19167,-0.17875 -0.46746,-0.0765 -0.94133,-0.15686 -1.37041,-0.3575 -0.19355,-0.0905 -0.37716,-0.20575 -0.53012,-0.35493 -0.15296,-0.14917 -0.27457,-0.33354 -0.33384,-0.53882 -0.0514,-0.17795 -0.055,-0.36789 -0.0237,-0.55045 0.0313,-0.18255 0.0967,-0.35813 0.18034,-0.52338 0.1673,-0.3305 0.40547,-0.61875 0.61792,-0.92221 0.48446,-0.69198 0.8399,-1.47396 1.04271,-2.29396 z"
         id="path13378"
         transform="rotate(-3.8623399,491.09148,701.49135)" />
      <path
         style="opacity:0.5;vector-effect:none;fill:#000000;fill-opacity:1;fill-rule:evenodd;stroke:none;stroke-width:2;stroke-linecap:butt;stroke-linejoin:miter;stroke-miterlimit:4;stroke-dasharray:none;stroke-dashoffset:0;stroke-opacity:1;paint-order:stroke fill markers"
         d="m 775.17829,787.79644 c -0.38163,-0.20347 -0.82524,-0.2768 -1.25661,-0.2459 -0.43138,0.0309 -0.85143,0.16254 -1.24218,0.34788 -0.78151,0.37069 -1.44267,0.94752 -2.14871,1.44719 -1.88791,1.33607 -4.13212,2.1418 -5.89874,3.63457 -1.58048,1.33548 -2.6797,3.13578 -3.87291,4.82625 -1.2622,1.78822 -2.66144,3.49222 -3.69416,5.42208 -0.84322,1.57574 -1.43548,3.2905 -2.44292,4.76666 -0.32884,0.48183 -0.70192,0.93831 -0.95518,1.46382 -0.12663,0.26275 -0.22233,0.54233 -0.26029,0.83152 -0.038,0.28919 -0.0168,0.58863 0.0834,0.86257 0.11994,0.3281 0.35493,0.61405 0.65709,0.78936 0.30217,0.17531 0.66968,0.23726 1.01124,0.16397 0.26241,-0.0563 0.50378,-0.18834 0.71793,-0.35009 0.21416,-0.16175 0.40368,-0.35334 0.5929,-0.54366 0.81235,-0.81707 1.63518,-1.62485 2.5025,-2.38333 1.67913,-1.46842 3.51842,-2.74636 5.18375,-4.23041 1.07673,-0.95952 2.0915,-2.0131 3.33666,-2.74083 1.22954,-0.7186 2.62638,-1.08582 3.99208,-1.48958 1.86207,-0.5505 3.74522,-1.20757 5.24332,-2.44291 1.90862,-1.57386 3.0082,-3.95413 3.51542,-6.37541 0.13684,-0.65325 0.2347,-1.33341 0.0882,-1.98457 -0.0732,-0.32557 -0.20861,-0.63977 -0.41521,-0.90184 -0.2066,-0.26208 -0.48649,-0.47017 -0.8051,-0.56942 -0.26009,-0.081 -0.5385,-0.0885 -0.80934,-0.0592 -0.27084,0.0293 -0.53633,0.0943 -0.80164,0.15614 -0.26532,0.0618 -0.5327,0.12071 -0.80461,0.1374 -0.2719,0.0167 -0.55045,-0.0104 -0.8019,-0.11521 -0.25496,-0.10628 -0.47125,-0.28713 -0.715,-0.41708 z"
         id="path13382"
         transform="rotate(-3.8623399,564.24305,500.94525)" />
      <path
         style="opacity:0.5;vector-effect:none;fill:#ffffff;fill-opacity:1;fill-rule:evenodd;stroke:none;stroke-width:2;stroke-linecap:butt;stroke-linejoin:miter;stroke-miterlimit:4;stroke-dasharray:none;stroke-dashoffset:0;stroke-opacity:1;paint-order:stroke fill markers"
         d="m 774.93996,789.34561 c -1.32623,0.74291 -2.70045,1.40014 -4.11125,1.96624 -0.83609,0.33549 -1.6862,0.63954 -2.49727,1.03168 -0.81106,0.39215 -1.58837,0.87816 -2.20981,1.5304 -0.45985,0.48263 -0.82504,1.04589 -1.23926,1.56821 -0.41422,0.52232 -0.89453,1.0163 -1.50157,1.29179 -0.52213,0.23696 -1.12187,0.3049 -1.59586,0.62755 -0.23699,0.16132 -0.43745,0.3911 -0.51402,0.66738 -0.0383,0.13813 -0.0446,0.28592 -0.0111,0.42532 0.0334,0.13939 0.10727,0.26987 0.21436,0.36516 0.15608,0.13888 0.37272,0.19529 0.58161,0.19131 0.20889,-0.004 0.41268,-0.0632 0.61005,-0.13171 1.67164,-0.58049 3.01248,-1.82783 4.52833,-2.74083 1.17843,-0.70977 2.48663,-1.23172 3.51541,-2.145 0.37146,-0.32976 0.6995,-0.70491 1.05201,-1.05484 0.35251,-0.34994 0.73593,-0.67893 1.1847,-0.89181 0.44878,-0.21289 0.97218,-0.30134 1.44809,-0.15912 0.23796,0.0711 0.46009,0.19948 0.63222,0.37851 0.17214,0.17902 0.29275,0.40929 0.33048,0.65476 0.0495,0.32215 -0.044,0.65302 -0.19853,0.94 -0.15453,0.28698 -0.36751,0.53743 -0.57605,0.78792 -0.41424,0.49759 -0.82016,1.00758 -1.31084,1.42999 -1.05484,0.90808 -2.41947,1.3477 -3.69416,1.90667 -1.64757,0.72248 -3.21522,1.69303 -4.40916,3.03875 -0.46301,0.52187 -0.87033,1.09989 -1.40716,1.54546 -0.26841,0.22279 -0.56915,0.41087 -0.89893,0.52456 -0.32978,0.11369 -0.69004,0.1506 -1.03057,0.075 -0.44859,-0.0996 -0.83108,-0.38239 -1.24796,-0.57571 -0.20844,-0.0967 -0.43002,-0.17202 -0.65928,-0.18722 -0.22926,-0.0152 -0.46773,0.0338 -0.65484,0.1671 -0.20942,0.14924 -0.34018,0.39885 -0.3575,0.65542 -0.0181,0.26784 0.0827,0.53688 0.2523,0.74496 0.16963,0.20807 0.40415,0.35765 0.65606,0.45042 0.50383,0.18555 1.05829,0.14921 1.59413,0.11545 0.79582,-0.0501 1.62245,-0.0972 2.32375,-0.47667 0.73251,-0.39638 1.23443,-1.1041 1.84708,-1.66833 0.91436,-0.8421 2.07341,-1.36101 3.2175,-1.84708 1.85911,-0.78984 3.75523,-1.54032 5.42208,-2.68125 1.1983,-0.82021 2.25582,-1.82767 3.27708,-2.85999 0.49133,-0.49665 0.97759,-1.00248 1.385,-1.57001 0.4074,-0.56753 0.73581,-1.20207 0.87916,-1.88582 0.0786,-0.37484 0.10023,-0.767 0.0116,-1.13961 -0.0886,-0.3726 -0.29463,-0.72487 -0.60747,-0.94581 -0.276,-0.19493 -0.618,-0.27812 -0.9554,-0.29656 -0.33739,-0.0184 -0.67473,0.0237 -1.01085,0.0582 -0.75211,0.0773 -1.50808,0.11711 -2.26416,0.11917 z"
         id="path13386"
         transform="rotate(-3.8623399,564.24305,500.94525)" />
      <path
         style="opacity:0.5;vector-effect:none;fill:#000000;fill-opacity:1;fill-rule:evenodd;stroke:none;stroke-width:2;stroke-linecap:butt;stroke-linejoin:miter;stroke-miterlimit:4;stroke-dasharray:none;stroke-dashoffset:0;stroke-opacity:1;paint-order:stroke fill markers"
         d="m 834.16572,792.44394 c -0.76959,0.43268 -1.365,1.12484 -1.83132,1.87452 -0.46632,0.74969 -0.81699,1.56403 -1.20742,2.35589 -0.72795,1.47641 -1.59617,2.87835 -2.44292,4.28999 -0.92169,1.53659 -1.81991,3.08816 -2.80041,4.58791 -0.69179,1.05815 -1.44502,2.14267 -1.60875,3.39625 -0.13367,1.02345 0.15847,2.09149 0.77458,2.91958 0.30196,0.40585 0.68841,0.76229 1.15729,0.95215 0.23444,0.0949 0.48744,0.14675 0.7403,0.1404 0.25285,-0.006 0.50534,-0.0718 0.72408,-0.1988 0.31297,-0.18171 0.54299,-0.47856 0.72645,-0.7905 0.18347,-0.31195 0.32847,-0.64569 0.51951,-0.95305 0.19104,-0.30737 0.43708,-0.59413 0.76253,-0.75241 0.16273,-0.0791 0.34346,-0.12409 0.52433,-0.11867 0.18086,0.005 0.36154,0.0626 0.50592,0.17171 0.20493,0.15481 0.32484,0.40614 0.35093,0.66165 0.0261,0.25551 -0.035,0.51437 -0.14023,0.74866 -0.21045,0.46859 -0.5866,0.83997 -0.86611,1.27094 -0.4023,0.6203 -0.5958,1.34919 -0.89375,2.02583 -0.25417,0.5772 -0.58484,1.11701 -0.874,1.6775 -0.28916,0.56049 -0.53977,1.15222 -0.61558,1.77833 -0.0544,0.44972 -0.0173,0.90552 -0.0466,1.35758 -0.0293,0.45206 -0.13529,0.92008 -0.43003,1.26409 -0.0844,0.0985 -0.18294,0.18518 -0.25832,0.29078 -0.0377,0.0528 -0.0694,0.11038 -0.0883,0.17243 -0.0189,0.0621 -0.0246,0.12882 -0.0108,0.1922 0.0196,0.0901 0.0787,0.16947 0.15531,0.22088 0.0766,0.0514 0.16954,0.0759 0.26177,0.077 0.11487,0.001 0.22878,-0.0323 0.32918,-0.0881 0.10039,-0.0558 0.18774,-0.13327 0.26266,-0.22036 0.14984,-0.17419 0.24972,-0.38453 0.3615,-0.58527 0.65261,-1.17201 1.7249,-2.03845 2.68124,-2.97916 0.90371,-0.88893 1.719,-1.8635 2.5025,-2.86 1.17588,-1.49556 2.28613,-3.04818 3.2175,-4.70708 1.10156,-1.96202 1.94413,-4.05628 2.80041,-6.13708 0.64472,-1.56669 1.30473,-3.14981 1.54916,-4.82624 0.22309,-1.53009 0.0892,-3.10759 -0.35749,-4.58791 -0.18426,-0.61058 -0.42373,-1.21036 -0.78112,-1.73859 -0.35739,-0.52824 -0.83961,-0.98391 -1.42347,-1.24057 -0.66606,-0.29279 -1.42114,-0.31178 -2.14499,-0.23834 -0.72441,0.0735 -1.45073,0.239 -2.08542,0.59584 z"
         id="path13390"
         transform="rotate(-3.8623399,564.24305,500.94525)" />
      <path
         style="opacity:0.5;vector-effect:none;fill:#ffffff;fill-opacity:1;fill-rule:evenodd;stroke:none;stroke-width:2;stroke-linecap:butt;stroke-linejoin:miter;stroke-miterlimit:4;stroke-dasharray:none;stroke-dashoffset:0;stroke-opacity:1;paint-order:stroke fill markers"
         d="m 832.61656,797.38935 c 0.0442,0.13964 0.14888,0.25708 0.27815,0.32593 0.12928,0.0688 0.28137,0.0905 0.42646,0.0704 0.14509,-0.02 0.28315,-0.0804 0.40273,-0.16499 0.11957,-0.0846 0.22119,-0.19289 0.30688,-0.31168 0.17136,-0.23758 0.27866,-0.51402 0.39512,-0.7828 0.11647,-0.26879 0.24765,-0.53854 0.45482,-0.74563 0.18431,-0.18424 0.42685,-0.31187 0.68494,-0.348 0.25808,-0.0361 0.53023,0.0217 0.74506,0.16925 0.18005,0.12364 0.31648,0.30682 0.39397,0.51103 0.0775,0.20422 0.0971,0.42855 0.0677,0.64496 -0.059,0.43284 -0.30946,0.82161 -0.62483,1.12389 -0.63073,0.60457 -1.50491,0.89641 -2.16055,1.47386 -0.59356,0.52277 -0.97147,1.24827 -1.25084,1.98824 -0.27937,0.73998 -0.47366,1.51087 -0.77499,2.24218 -0.2282,0.55384 -0.51656,1.08187 -0.7327,1.64053 -0.21615,0.55866 -0.35968,1.16199 -0.28021,1.75571 0.0537,0.4014 0.20827,0.78509 0.41708,1.13208 0.20956,0.34824 0.47294,0.66131 0.68934,1.00534 0.21639,0.34404 0.38814,0.73326 0.38316,1.13966 -0.006,0.46357 -0.239,0.89308 -0.50293,1.27422 -0.26393,0.38114 -0.56773,0.74172 -0.74832,1.1687 -0.21079,0.49837 -0.23902,1.0512 -0.30446,1.58834 -0.0327,0.26857 -0.0756,0.53704 -0.15617,0.79534 -0.0805,0.25829 -0.19992,0.50715 -0.37354,0.71465 -0.19003,0.2271 -0.43892,0.39828 -0.63544,0.61977 -0.0983,0.11075 -0.18364,0.23509 -0.23447,0.37415 -0.0508,0.13906 -0.0654,0.29398 -0.0238,0.43607 0.0284,0.0969 0.0824,0.18594 0.1534,0.25776 0.071,0.0718 0.15883,0.12654 0.25372,0.16116 0.18979,0.0693 0.40449,0.0563 0.5928,-0.0169 0.18831,-0.0732 0.35117,-0.20347 0.48063,-0.35856 0.12947,-0.15509 0.22703,-0.33458 0.30695,-0.52013 0.17998,-0.41787 0.27735,-0.87711 0.53625,-1.25125 0.26871,-0.38831 0.68463,-0.64587 1.09699,-0.87597 0.41236,-0.2301 0.84171,-0.45023 1.16718,-0.79236 0.29358,-0.30861 0.4871,-0.7035 0.5949,-1.11557 0.1078,-0.41208 0.13311,-0.84201 0.1201,-1.26776 -0.0341,-1.11613 -0.32731,-2.22357 -0.23834,-3.33667 0.0609,-0.76206 0.29985,-1.49971 0.59583,-2.20458 0.54064,-1.28751 1.28889,-2.53846 1.37042,-3.93249 0.0144,-0.24685 0.007,-0.4946 0.0224,-0.74142 0.0149,-0.24682 0.0529,-0.49563 0.15249,-0.72196 0.0996,-0.22633 0.26613,-0.42983 0.48877,-0.53744 0.11131,-0.0538 0.23526,-0.0827 0.35882,-0.0784 0.12356,0.004 0.24648,0.0424 0.34798,0.11296 0.0965,0.0671 0.17151,0.16144 0.22964,0.26355 0.0581,0.10212 0.10031,0.21239 0.14097,0.32263 0.0407,0.11024 0.0802,0.22129 0.13345,0.32601 0.0533,0.10473 0.12117,0.20366 0.21093,0.27948 0.1037,0.0876 0.23436,0.14143 0.36901,0.15851 0.13466,0.0171 0.27299,-0.002 0.40037,-0.0488 0.25476,-0.0938 0.45942,-0.29519 0.60104,-0.5268 0.23273,-0.3806 0.30767,-0.8378 0.31963,-1.28375 0.012,-0.44595 -0.0342,-0.89197 -0.0217,-1.33791 0.0159,-0.56955 0.12717,-1.13301 0.14778,-1.70241 0.0206,-0.5694 -0.0597,-1.16725 -0.38612,-1.63425 -0.20712,-0.29631 -0.49987,-0.52104 -0.7979,-0.72566 -0.29804,-0.20462 -0.60831,-0.39579 -0.87043,-0.64476 -0.15356,-0.14586 -0.29233,-0.31279 -0.47666,-0.41708 -0.18514,-0.10475 -0.40545,-0.138 -0.61717,-0.11737 -0.21172,0.0206 -0.41581,0.0927 -0.60647,0.18704 -0.38132,0.18867 -0.7143,0.46601 -1.10011,0.64533 -0.38086,0.17703 -0.79958,0.25244 -1.20132,0.37489 -0.40175,0.12245 -0.80579,0.30588 -1.06285,0.63802 -0.19802,0.25586 -0.29076,0.57721 -0.35044,0.89519 -0.0597,0.31798 -0.0909,0.64258 -0.18581,0.95189 -0.039,0.1271 -0.0886,0.25112 -0.11885,0.38057 -0.0303,0.12946 -0.0404,0.26727 -3.1e-4,0.39402 z"
         id="path13394"
         transform="rotate(-3.8623399,564.24305,500.94525)" />
      <g
         aria-label="WôT ?"
         transform="rotate(-39.846603)"
         style="font-style:normal;font-variant:normal;font-weight:normal;font-stretch:normal;font-size:85.33333588px;line-height:1.25;font-family:'Lucida Fax';-inkscape-font-specification:'Lucida Fax, Normal';font-variant-ligatures:normal;font-variant-caps:normal;font-variant-numeric:normal;font-feature-settings:normal;text-align:end;letter-spacing:0px;word-spacing:0px;writing-mode:lr-tb;text-anchor:end;fill:#af7b9e;fill-opacity:1;stroke:none"
         id="text13410">
        <path
           d="m 330.79205,564.8807 -6.04167,4.625 q 6.25,-14.95834 13.95833,-30.29167 2.875,-5.75 2.875,-9.5 0,-2.79167 -1.375,-4.79167 -1.375,-2 -6.25,-2 -1.79166,4.95834 -2.16666,6.54167 -0.45834,2.04167 -1.08334,6.70833 -0.79166,6 -1.5,9 -0.75,3.04167 -3.125,8.83334 -2.70833,6.5 -9.20833,20 l -19.375,11.45833 -6.375,-16.83333 0.41667,-25.45834 q -3.875,3.875 -14.91667,18.33334 -5.5,7.20833 -9.33333,12.58333 -3.79167,5.41667 -5.83334,9 l -13.70833,2.29167 q 0.16666,-11.16667 1.33333,-21.95834 0.91667,-8.5 0.91667,-12.66666 0,-6.625 -1.66667,-16.33334 -3.20833,-2.29166 -7.79167,-4.29166 -4.54166,-2.04167 -9.79166,-3.54167 0.5,-0.75 4.95833,-7.04167 4.45833,-6.33333 6.75,-9.54167 8.66667,1.91667 14.29167,5.54167 1.625,1.04167 3.58333,2.79167 2,1.75 3.91667,4 1.91667,2.20833 3.66667,4.66667 l -5.5,22.125 q -1.83334,7.375 -5.04167,24.91666 l 14.25,-16.45833 8.75,-9.91667 q 1.25,-1.375 3,-3.5 1.79167,-2.16666 3.79167,-4.58333 2,-2.45833 3.375,-4.16667 1.375,-1.70833 3.29166,-4.08333 l 13.16667,-5.125 5.41667,42.29167 q 1.08333,-2.75 5,-15.58334 1.66666,-5.33333 2.375,-7.41666 0.70833,-2.08334 2.625,-7.5 2.58333,-7.08334 4.66666,-11.41667 1.875,-4 4.54167,-8.29167 2.45833,-3.875 4.625,-5.875 2.20833,-2 2.83333,-2.29167 0.625,-0.29166 2.75,-0.29166 4.91667,0 8.33334,2.54167 3.41666,2.54166 3.41666,6.79166 0,4.08334 -1.91666,8.29167 -1.91667,4.29167 -8.04167,14.08333 -2.875,4.54167 -5.20833,8.45834 -2.33334,3.875 -3,5.04166 -2.16667,3.875 -4.625,9.83334 z"
           style="font-style:normal;font-variant:normal;font-weight:normal;font-stretch:normal;font-size:85.33333588px;font-family:'Matura MT Script Capitals';-inkscape-font-specification:'Matura MT Script Capitals';fill:#af7b9e;fill-opacity:1"
           id="path13615" />
        <path
           d="m 369.12538,537.46403 q -2.20833,3.70833 -2.20833,7.66667 0,10.79166 11.04166,13.16666 1.04167,-4.16666 1.04167,-8.16666 0,-6.41667 -3.04167,-9.20834 -3,-2.75 -6.83333,-3.45833 z m 17.875,-6.70833 -2.25,3.83333 q 3.125,0.95833 5.08333,4.04167 2,3.125 2,7.70833 0,4.41667 -1.70833,8.20833 -1.75,3.75 -3.70833,5.45834 -2,1.79166 -6.875,4.20833 -0.875,0.41667 -2.45834,1.54167 -1.20833,0.91666 -2.08333,1.375 -8.125,-0.0417 -14.79167,-4.58334 -6.66666,-4.41666 -6.66666,-11.16666 0,-11 15.20833,-21.08334 6.95833,0.625 11.79167,0.625 3.58333,0 6.45833,-0.16666 z m -13.95833,-13.91667 -7,8.375 -3.45834,-1.5 9.45834,-11.41667 7.41666,-0.16666 8.41667,10.125 -5.95833,2.95833 z"
           style="font-style:normal;font-variant:normal;font-weight:normal;font-stretch:normal;font-size:85.33333588px;font-family:'Matura MT Script Capitals';-inkscape-font-specification:'Matura MT Script Capitals';fill:#af7b9e;fill-opacity:1"
           id="path13617" />
        <path
           d="m 478.75038,512.0057 q -4.5,7.625 -10.58333,14.95833 -4.83334,1.41667 -10.04167,2.33333 -8.16667,9.625 -20.79167,27.04167 -1.83333,2.54167 -5.125,6.91667 -3.25,4.33333 -5.33333,7 -2.04167,2.66666 -4.08334,5.08333 -2.70833,3.25 -4.625,5.125 -1.91666,1.875 -3.29166,2.79167 -2.91667,1.83333 -5.5,1.83333 -2.41667,0 -3.75,-0.79167 -1.41667,-0.75 -3,-2.83333 -1.08334,-1.375 -2.70834,-2.29167 4.04167,-7.79166 5.5,-11.79166 4.70834,4.16666 12.04167,6.16666 l 7.5,-10.20833 q 3.54167,-4.83333 7.375,-10.54167 4.08334,-6 7.375,-11.25 l 7.79167,-12.375 q -8.5,-1.66666 -16.25,-2.5 -7.75,-0.83333 -14.125,-0.83333 -10.79167,0 -23,3 7.25,-10.41667 11.79166,-18.41667 2.79167,-0.29167 5.875,-0.41667 3.125,-0.16666 6.58334,-0.16666 9.16667,0 18.95833,1.625 l 8.875,1.5 q 2.16667,0.375 5.91667,0.58333 3.66667,0.20834 6.75,0.20834 7.625,0 19.875,-1.75 z"
           style="font-style:normal;font-variant:normal;font-weight:normal;font-stretch:normal;font-size:85.33333588px;font-family:'Matura MT Script Capitals';-inkscape-font-specification:'Matura MT Script Capitals';fill:#af7b9e;fill-opacity:1"
           id="path13619" />
        <path
           d="m 508.75038,550.21403 5.125,1.125 q 1.875,0.25 4,0.70833 1.83333,0.45834 2.125,0.66667 0.33333,0.25 0.625,1.5 0.33333,1.33333 0.33333,2.125 0,2.20833 -1.66667,5.5 -1.66666,3.29167 -4.5,3.29167 -3.5,0 -11,-2.41667 3.29167,-5.04167 4.95834,-12.5 z m -9.58334,-27.41667 8.33334,-11.29166 q 15.66666,0.79166 21.625,5.33333 5.875,4.5 5.875,12.45833 0,0.58334 -0.0417,1.08334 -3.33333,5.33333 -12.04167,9.75 -8.75,4.5 -17.54166,4.5 -0.45834,0 -3.29167,-0.0833 v -0.20833 q 15.33333,-7.83333 15.33333,-14.33333 0,-1.91667 -1.5,-3.83334 -1.54166,-1.875 -7,-2.70833 -5.29166,-0.79167 -7.83333,-0.79167 -0.54167,0 -1.91667,0.125 z"
           style="font-style:normal;font-variant:normal;font-weight:normal;font-stretch:normal;font-size:85.33333588px;font-family:'Matura MT Script Capitals';-inkscape-font-specification:'Matura MT Script Capitals';fill:#af7b9e;fill-opacity:1"
           id="path13621" />
      </g>
      <path
         style="opacity:1;vector-effect:none;fill:#ffc10a;fill-opacity:1;fill-rule:evenodd;stroke:none;stroke-width:2;stroke-linecap:butt;stroke-linejoin:miter;stroke-miterlimit:4;stroke-dasharray:none;stroke-dashoffset:0;stroke-opacity:1;paint-order:stroke fill markers"
         d="m 823.50682,126.08916 c -0.47736,1.64225 -0.899,3.30071 -1.26395,4.97154 -0.53211,2.43617 -0.94525,4.92859 -0.75837,7.41518 0.23013,3.06209 1.38507,6.03511 3.20201,8.51061 1.12873,1.53785 2.57378,2.93043 4.3817,3.53907 1.35851,0.45735 2.8774,0.43573 4.21317,-0.0843 1.3187,-0.51339 2.42944,-1.49086 3.22557,-2.66078 0.79614,-1.16991 1.29087,-2.52598 1.57745,-3.91177 0.66436,-3.21256 0.23567,-6.54442 -0.33705,-9.77457 -0.46649,-2.63101 -1.0499,-5.30395 -2.44364,-7.58371 -1.01959,-1.66776 -2.51927,-3.11402 -4.3817,-3.70759 -1.66707,-0.5313 -3.56222,-0.32152 -5.05581,0.58985 -1.03539,0.63178 -1.87063,1.58634 -2.35938,2.69643 z"
         id="path13261"
         transform="rotate(-3.8623399,733.45964,452.7809)" />
      <path
         style="opacity:1;vector-effect:none;fill:#000000;fill-opacity:1;fill-rule:evenodd;stroke:none;stroke-width:2;stroke-linecap:butt;stroke-linejoin:miter;stroke-miterlimit:4;stroke-dasharray:none;stroke-dashoffset:0;stroke-opacity:1;paint-order:stroke fill markers"
         d="m 827.97278,129.71248 c -0.50428,0.23163 -0.89441,0.66516 -1.16786,1.14804 -0.27346,0.48288 -0.44131,1.01714 -0.60167,1.5484 -0.407,1.34838 -0.78089,2.7218 -0.84263,4.12891 -0.0929,2.11812 0.53693,4.23316 1.601,6.06696 0.36262,0.62493 0.78138,1.22789 1.32854,1.69975 0.54717,0.47185 1.23555,0.80625 1.95774,0.82816 0.8407,0.0255 1.65707,-0.37804 2.25475,-0.96982 0.59768,-0.59178 0.9965,-1.35762 1.28431,-2.14793 0.771,-2.11714 0.79066,-4.46879 0.25279,-6.65681 -0.46873,-1.90676 -1.39923,-3.76617 -2.94922,-4.97155 -0.44164,-0.34345 -0.93478,-0.63239 -1.47561,-0.7756 -0.54083,-0.14321 -1.13374,-0.13203 -1.64214,0.10149 z"
         id="path13265"
         transform="rotate(-3.8623399,733.45964,452.7809)" />
      <path
         style="opacity:1;vector-effect:none;fill:#ffffff;fill-opacity:1;fill-rule:evenodd;stroke:none;stroke-width:2;stroke-linecap:butt;stroke-linejoin:miter;stroke-miterlimit:4;stroke-dasharray:none;stroke-dashoffset:0;stroke-opacity:1;paint-order:stroke fill markers"
         d="m 826.96162,124.57241 c -0.79737,0.88878 -1.76794,1.62771 -2.44364,2.61217 -0.73399,1.0694 -1.07065,2.35632 -1.34821,3.62333 -0.0887,0.40478 -0.17294,0.81265 -0.19267,1.22656 -0.0197,0.41391 0.0275,0.83706 0.19267,1.21708 0.15915,0.36605 0.43092,0.68697 0.78038,0.87983 0.34947,0.19286 0.77683,0.25079 1.15768,0.13133 0.28428,-0.0892 0.53399,-0.27182 0.72947,-0.49666 0.19547,-0.22484 0.33918,-0.49083 0.45022,-0.76729 0.15619,-0.38886 0.24974,-0.79937 0.36302,-1.20283 0.11328,-0.40345 0.24925,-0.80648 0.47961,-1.15655 0.23001,-0.34954 0.54498,-0.63282 0.84263,-0.9269 0.42979,-0.42464 0.83511,-0.88724 1.09543,-1.43247 0.39547,-0.8283 0.42671,-1.77858 0.42132,-2.69643 -0.002,-0.39887 -0.0121,-0.80775 -0.1583,-1.17888 -0.0731,-0.18556 -0.18063,-0.35934 -0.32592,-0.49597 -0.14528,-0.13664 -0.32954,-0.23477 -0.52694,-0.26321 -0.15326,-0.0221 -0.3111,-0.002 -0.45788,0.0473 -0.14678,0.0493 -0.2829,0.12732 -0.40675,0.22025 -0.24772,0.18587 -0.44531,0.42884 -0.65212,0.65936 z"
         id="path13269"
         transform="rotate(-3.8623399,733.45964,452.7809)" />
      <path
         style="opacity:1;vector-effect:none;fill:#8a877f;fill-opacity:1;fill-rule:evenodd;stroke:none;stroke-width:2;stroke-linecap:butt;stroke-linejoin:miter;stroke-miterlimit:4;stroke-dasharray:none;stroke-dashoffset:0;stroke-opacity:1;paint-order:stroke fill markers"
         d="m 922.09507,137.04341 c -1.98175,2.11533 -4.52133,3.61305 -6.74107,5.47712 -2.78215,2.33637 -5.08026,5.29586 -6.40403,8.67914 -1.17356,2.99938 -1.55949,6.23903 -1.93806,9.43751 -0.13341,1.12715 -0.26687,2.27202 -0.0838,3.39219 0.0915,0.56008 0.26331,1.11026 0.54141,1.60496 0.2781,0.4947 0.66513,0.93289 1.14343,1.23834 0.46507,0.297 1.00705,0.46296 1.55586,0.52045 0.54882,0.0575 1.10508,0.009 1.64615,-0.0991 1.81447,-0.36334 3.43462,-1.38344 5.22433,-1.8538 0.56349,-0.14809 1.14587,-0.24242 1.67847,-0.47861 0.2663,-0.11809 0.51893,-0.27208 0.72909,-0.4738 0.21017,-0.20172 0.37684,-0.45291 0.4574,-0.73286 0.0786,-0.27324 0.0732,-0.56788 0,-0.84263 -0.11347,-0.42614 -0.37946,-0.79211 -0.58984,-1.17969 -0.44147,-0.81333 -0.64378,-1.74676 -0.63551,-2.67214 0.008,-0.92538 0.22253,-1.84288 0.57213,-2.69972 0.69919,-1.71369 1.91646,-3.16171 3.19289,-4.50198 1.27642,-1.34027 2.6386,-2.61295 3.71934,-4.11547 1.08074,-1.50253 1.8765,-3.28824 1.83028,-5.1385 -0.019,-0.75993 -0.17879,-1.52083 -0.0843,-2.27511 0.0706,-0.56379 0.28105,-1.10108 0.37884,-1.66079 0.0489,-0.27986 0.0693,-0.56703 0.029,-0.84825 -0.0403,-0.28122 -0.14393,-0.5571 -0.32352,-0.77723 -0.14119,-0.17307 -0.32458,-0.30694 -0.51532,-0.42315 -0.19074,-0.11621 -0.39079,-0.21671 -0.5801,-0.33523 -0.27955,-0.17502 -0.53331,-0.3878 -0.80284,-0.57789 -0.26952,-0.1901 -0.56087,-0.35994 -0.88243,-0.43327 -0.30625,-0.0698 -0.62966,-0.0485 -0.93167,0.0379 -0.30201,0.0864 -0.58351,0.23605 -0.8392,0.4185 -0.5114,0.3649 -0.91736,0.85467 -1.34688,1.31314 z"
         id="path13284"
         transform="rotate(-3.8623399,733.45964,452.7809)" />
      <path
         style="opacity:1;vector-effect:none;fill:#ffc10a;fill-opacity:1;fill-rule:evenodd;stroke:none;stroke-width:2;stroke-linecap:butt;stroke-linejoin:miter;stroke-miterlimit:4;stroke-dasharray:none;stroke-dashoffset:0;stroke-opacity:1;paint-order:stroke fill markers"
         d="m 922.60065,139.73984 c -1.24698,0.16158 -2.39636,0.78777 -3.36956,1.58399 -0.9732,0.79621 -1.79157,1.76155 -2.61314,2.71344 -1.1871,1.37541 -2.3951,2.73738 -3.4548,4.21318 -1.32316,1.84271 -2.40863,3.85741 -3.20202,5.9827 -0.44512,1.19236 -0.80033,2.4292 -0.89663,3.69828 -0.0963,1.26909 0.077,2.57739 0.64384,3.71691 0.34122,0.68594 0.82815,1.30862 1.45661,1.74678 0.62847,0.43815 1.40379,0.68247 2.16672,0.61259 0.84775,-0.0777 1.61032,-0.52241 2.35938,-0.92689 1.97017,-1.06385 4.0619,-1.92121 5.89844,-3.20202 2.01784,-1.40725 3.69335,-3.32519 4.71876,-5.56138 0.87842,-1.91564 1.27196,-4.04583 1.17968,-6.15124 -0.0675,-1.53879 -0.38848,-3.05502 -0.75837,-4.55022 -0.17535,-0.70882 -0.36448,-1.42161 -0.70023,-2.07003 -0.33574,-0.64841 -0.83333,-1.23528 -1.49062,-1.5533 -0.5948,-0.28778 -1.28278,-0.3377 -1.93806,-0.25279 z"
         id="path13288"
         transform="rotate(-3.8623399,733.45964,452.7809)" />
      <path
         style="opacity:1;vector-effect:none;fill:#000000;fill-opacity:1;fill-rule:evenodd;stroke:none;stroke-width:2;stroke-linecap:butt;stroke-linejoin:miter;stroke-miterlimit:4;stroke-dasharray:none;stroke-dashoffset:0;stroke-opacity:1;paint-order:stroke fill markers"
         d="m 921.58949,143.44743 c -1.94685,0.85268 -3.69212,2.16163 -5.05581,3.79185 -0.96659,1.1555 -1.73769,2.46103 -2.44364,3.79186 -0.51296,0.96702 -1.00143,1.97491 -1.13418,3.06147 -0.0664,0.54329 -0.0407,1.10159 0.11405,1.62658 0.15476,0.52498 0.44223,1.01564 0.85161,1.37892 0.4568,0.40536 1.05321,0.63985 1.66109,0.69875 0.60788,0.0589 1.226,-0.0523 1.79371,-0.27743 0.95795,-0.3799 1.76507,-1.07213 2.43363,-1.85637 0.66855,-0.78424 1.21269,-1.6647 1.77954,-2.52533 0.99924,-1.51711 2.089,-3.0067 2.69643,-4.71876 0.18785,-0.52946 0.32817,-1.07965 0.36111,-1.64048 0.0329,-0.56083 -0.0448,-1.13415 -0.27681,-1.64579 -0.23784,-0.52447 -0.63712,-0.97438 -1.12961,-1.27285 -0.49249,-0.29848 -1.07609,-0.44426 -1.65109,-0.41242 z"
         id="path13292"
         transform="rotate(-3.8623399,733.45964,452.7809)" />
      <path
         style="opacity:1;vector-effect:none;fill:#ffffff;fill-opacity:1;fill-rule:evenodd;stroke:none;stroke-width:2;stroke-linecap:butt;stroke-linejoin:miter;stroke-miterlimit:4;stroke-dasharray:none;stroke-dashoffset:0;stroke-opacity:1;paint-order:stroke fill markers"
         d="m 924.03313,139.8241 c -0.83887,-0.27095 -1.74544,-0.32944 -2.61217,-0.16853 -0.63995,0.1188 -1.26268,0.3588 -1.78822,0.7428 -0.52554,0.38401 -0.95023,0.91651 -1.161,1.53232 -0.28444,0.83107 -0.16805,1.73776 -0.0843,2.61216 0.0643,0.67144 0.10852,1.35115 0.30288,1.99705 0.19437,0.6459 0.55865,1.26715 1.1296,1.62628 0.33146,0.20849 0.71882,0.31959 1.10909,0.35167 0.39026,0.0321 0.78404,-0.0127 1.16602,-0.0989 0.37819,-0.0853 0.75056,-0.21284 1.07932,-0.41834 0.32875,-0.2055 0.61295,-0.49316 0.77448,-0.84561 0.11849,-0.25853 0.16831,-0.54443 0.17835,-0.82865 0.01,-0.28422 -0.0185,-0.56829 -0.0507,-0.85085 -0.0644,-0.56514 -0.14133,-1.15224 0.0409,-1.69104 0.13803,-0.40808 0.41348,-0.75241 0.6741,-1.09542 0.17058,-0.22451 0.33775,-0.4536 0.46446,-0.70549 0.12671,-0.25188 0.2122,-0.5293 0.20965,-0.81125 -0.003,-0.36629 -0.16185,-0.72868 -0.42859,-0.97973 -0.26675,-0.25106 -0.63807,-0.38736 -1.00389,-0.36849 z"
         id="path13296"
         transform="rotate(-3.8623399,733.45964,452.7809)" />
      <path
         style="opacity:1;vector-effect:none;fill:#a5b0dd;fill-opacity:1;fill-rule:evenodd;stroke:none;stroke-width:2;stroke-linecap:butt;stroke-linejoin:miter;stroke-miterlimit:4;stroke-dasharray:none;stroke-dashoffset:0;stroke-opacity:1;paint-order:stroke fill markers"
         d="m 853.1132,152.22174 c -0.41688,-0.86318 -0.37469,-1.89617 -0.0597,-2.80153 0.31495,-0.90536 0.88035,-1.70185 1.48974,-2.44179 1.31305,-1.59436 2.8727,-2.99517 4.64749,-4.05167 2.38343,-1.41882 5.10258,-2.19291 7.5075,-3.57499 1.20279,-0.69123 2.32894,-1.53527 3.62149,-2.03907 0.64627,-0.25189 1.33316,-0.41557 2.02679,-0.41489 0.69363,6.8e-4 1.39517,0.17179 1.97837,0.54729 0.45037,0.28998 0.81671,0.68997 1.19167,1.0725 0.60989,0.6222 1.25947,1.21209 1.99208,1.68366 0.73261,0.47157 1.55343,0.82307 2.41708,0.93801 1.48732,0.19794 2.96492,-0.30823 4.40916,-0.715 0.64155,-0.18069 1.29123,-0.34345 1.95445,-0.40953 0.66323,-0.0661 1.34358,-0.033 1.97805,0.17119 0.62877,0.20232 1.19427,0.56595 1.71265,0.9753 0.51837,0.40935 0.99651,0.86712 1.50484,1.28887 1.61294,1.33822 3.54072,2.32529 4.88583,3.93249 1.54449,1.84542 2.14037,4.29427 2.5025,6.67333 0.26404,1.73464 0.42888,3.49909 0.23833,5.24333 -0.15225,1.39362 -0.53088,2.7586 -1.0725,4.05166 -0.89264,2.1311 -2.21948,4.05983 -3.09833,6.19666 -0.95915,2.33209 -1.38357,4.90563 -2.74083,7.03082 -1.15662,1.81103 -2.90298,3.15446 -4.64749,4.40917 -1.47155,1.05839 -3.01473,2.13104 -3.9325,3.69416 -0.78527,1.33745 -1.03734,2.90874 -1.43,4.40916 -0.29055,1.11023 -0.6814,2.22847 -1.42999,3.09833 -0.95606,1.11094 -2.47567,1.71004 -3.9325,1.54916 -1.13757,-0.12562 -2.21465,-0.69747 -2.97916,-1.54916 -0.82824,-0.92268 -1.27757,-2.12688 -1.54917,-3.33666 -0.20215,-0.90041 -0.32777,-1.8502 -0.83416,-2.62167 -0.32472,-0.4947 -0.78894,-0.8846 -1.28927,-1.2006 -0.50032,-0.31599 -1.03988,-0.56375 -1.57073,-0.82523 -1.14991,-0.5664 -2.26634,-1.20132 -3.33666,-1.90666 -1.41676,-0.93365 -2.78631,-2.00727 -4.40916,-2.5025 -1.52497,-0.46536 -3.20433,-0.39475 -4.6475,-1.0725 -0.27892,-0.13099 -0.54823,-0.29092 -0.76653,-0.5084 -0.2183,-0.21747 -0.38349,-0.49711 -0.42513,-0.80243 -0.0502,-0.36809 0.0799,-0.73647 0.23833,-1.0725 0.34132,-0.7241 0.82467,-1.38382 1.0725,-2.145 0.34697,-1.06566 0.20046,-2.21889 0.11916,-3.33666 -0.0519,-0.71423 -0.0757,-1.43021 -0.11916,-2.145 -0.10891,-1.79023 -0.34974,-3.60185 -1.0725,-5.24332 -0.3245,-0.73698 -0.74474,-1.43655 -0.96829,-2.21015 -0.11177,-0.3868 -0.17282,-0.79157 -0.14172,-1.193 0.0311,-0.40142 0.15763,-0.79997 0.39501,-1.12518 0.0985,-0.13493 0.21663,-0.25756 0.35852,-0.34573 0.1419,-0.0882 0.30886,-0.14047 0.47564,-0.13094 0.13241,0.008 0.26112,0.0537 0.37392,0.12348 0.1128,0.0698 0.21021,0.16256 0.29377,0.26555 0.16713,0.20597 0.27869,0.45013 0.40481,0.68347 0.473,0.87516 1.15973,1.61162 1.7875,2.38333 1.50475,1.84975 2.69932,3.9436 4.29,5.71999 0.84728,0.9462 1.80386,1.79699 2.85999,2.5025 0.39025,0.26069 0.79414,0.50171 1.16973,0.78311 0.37559,0.2814 0.72541,0.60712 0.97527,1.00439 0.28491,0.453 0.42902,0.98045 0.68651,1.44958 0.12874,0.23457 0.28767,0.45597 0.49295,0.62759 0.20529,0.17163 0.46005,0.29128 0.72721,0.30616 0.12634,0.007 0.25661,-0.0102 0.36848,-0.0693 0.0559,-0.0296 0.10669,-0.0695 0.14657,-0.11856 0.0399,-0.0491 0.0687,-0.10755 0.0808,-0.16965 0.0159,-0.0817 0.002,-0.16772 -0.0311,-0.244 -0.0334,-0.0763 -0.0857,-0.14324 -0.14656,-0.20009 -0.12164,-0.1137 -0.2745,-0.18679 -0.41819,-0.27091 -0.53774,-0.31481 -0.96056,-0.79549 -1.31084,-1.31083 -0.43432,-0.639 -0.77653,-1.34857 -1.31083,-1.90667 -0.62441,-0.65223 -1.48274,-1.06614 -2.02583,-1.78749 -0.46039,-0.61151 -0.65006,-1.38751 -1.0725,-2.02583 -0.34251,-0.51754 -0.82475,-0.92498 -1.31083,-1.31084 -0.19617,-0.15572 -0.39488,-0.30988 -0.56847,-0.49044 -0.17359,-0.18056 -0.32255,-0.39018 -0.40076,-0.62812 -0.0782,-0.23795 -0.0805,-0.50668 0.0272,-0.7328 0.0539,-0.11307 0.13454,-0.21386 0.23593,-0.28738 0.10138,-0.0735 0.22355,-0.11915 0.34863,-0.12542 0.11086,-0.006 0.22206,0.0195 0.32384,0.0638 0.10177,0.0443 0.19455,0.10745 0.27947,0.17894 0.16984,0.14297 0.30875,0.31879 0.46919,0.47223 0.34217,0.32725 0.77662,0.54622 1.22843,0.68778 0.45181,0.14157 0.9231,0.20941 1.39323,0.26555 0.47456,0.0567 0.95474,0.10195 1.42964,0.0483 0.47491,-0.0537 0.94896,-0.21319 1.31119,-0.52497 0.40607,-0.34951 0.64738,-0.86558 1.0725,-1.19166 0.36764,-0.28199 0.83741,-0.39467 1.23223,-0.63714 0.19741,-0.12124 0.37823,-0.2787 0.49093,-0.48111 0.0563,-0.10121 0.0949,-0.21286 0.10775,-0.32798 0.0128,-0.11512 -4.6e-4,-0.23369 -0.0434,-0.34127 -0.0543,-0.13606 -0.1547,-0.25108 -0.27457,-0.3353 -0.11988,-0.0842 -0.25868,-0.13886 -0.40107,-0.1733 -0.28478,-0.0689 -0.58192,-0.0587 -0.87352,-0.0872 -0.34276,-0.0335 -0.6785,-0.1206 -1.02111,-0.1556 -0.3426,-0.035 -0.70466,-0.0134 -1.00473,0.1556 -0.22198,0.12503 -0.39399,0.3212 -0.59583,0.47666 -0.29824,0.22971 -0.65872,0.36754 -1.026,0.45008 -0.36729,0.0826 -0.74402,0.11251 -1.119,0.14576 -0.47645,0.0422 -0.96019,0.0898 -1.42999,0 -0.48211,-0.0922 -0.92531,-0.32484 -1.34548,-0.57858 -0.42017,-0.25374 -0.82775,-0.53268 -1.27619,-0.73225 -0.65258,-0.29042 -1.36746,-0.40252 -2.06648,-0.54941 -0.69902,-0.14688 -1.40875,-0.3396 -1.98518,-0.76143 -0.69135,-0.50592 -1.11864,-1.28518 -1.54917,-2.02583 -0.47644,-0.81962 -0.9833,-1.6227 -1.54916,-2.38333 -0.25689,-0.34531 -0.52783,-0.68494 -0.715,-1.0725 z"
         id="path13300"
         transform="rotate(-3.8623399,733.45964,452.7809)" />
      <path
         style="opacity:0.7;vector-effect:none;fill:#000000;fill-opacity:1;fill-rule:evenodd;stroke:none;stroke-width:2;stroke-linecap:butt;stroke-linejoin:miter;stroke-miterlimit:4;stroke-dasharray:none;stroke-dashoffset:0;stroke-opacity:1;paint-order:stroke fill markers"
         d="m 893.15316,164.25756 c -0.0474,-0.14614 -0.13162,-0.27933 -0.23818,-0.39001 -0.10657,-0.11068 -0.23515,-0.19916 -0.37358,-0.26581 -0.27687,-0.13329 -0.58846,-0.17853 -0.89561,-0.18723 -0.30716,-0.009 -0.61424,0.0174 -0.92151,0.0187 -0.30728,0.001 -0.61927,-0.0232 -0.90779,-0.12896 -0.41646,-0.15259 -0.75323,-0.46132 -1.127,-0.7001 -0.18688,-0.11939 -0.38667,-0.22283 -0.60179,-0.27672 -0.21512,-0.0539 -0.44742,-0.0558 -0.65454,0.0235 -0.19011,0.0727 -0.35182,0.21167 -0.4649,0.38092 -0.11308,0.16925 -0.17889,0.36769 -0.20437,0.56965 -0.0509,0.4039 0.0557,0.81104 0.19261,1.19443 0.11267,0.31551 0.24781,0.62586 0.44022,0.90012 0.1924,0.27427 0.44561,0.51224 0.75144,0.64904 0.33099,0.14805 0.70537,0.17077 1.0669,0.14308 0.36153,-0.0277 0.71771,-0.10319 1.0781,-0.14308 0.64936,-0.0719 1.32548,-0.0311 1.93326,-0.27078 0.30389,-0.11983 0.58562,-0.31317 0.76903,-0.58349 0.0917,-0.13516 0.15775,-0.2884 0.18699,-0.44909 0.0292,-0.16069 0.0211,-0.32879 -0.0293,-0.48414 z"
         id="path13304"
         transform="rotate(-3.8623399,733.45964,452.7809)" />
      <path
         style="opacity:0.7;vector-effect:none;fill:#000000;fill-opacity:1;fill-rule:evenodd;stroke:none;stroke-width:2;stroke-linecap:butt;stroke-linejoin:miter;stroke-miterlimit:4;stroke-dasharray:none;stroke-dashoffset:0;stroke-opacity:1;paint-order:stroke fill markers"
         d="m 855.86399,157.60369 c 0.0137,-0.0951 0.0681,-0.1836 0.1468,-0.23869 0.0787,-0.0551 0.18051,-0.0759 0.27452,-0.0562 0.11422,0.0239 0.20943,0.10288 0.28599,0.19096 0.0766,0.0881 0.13955,0.18757 0.21959,0.27249 0.17987,0.19084 0.43488,0.29557 0.69202,0.34704 0.25715,0.0515 0.52106,0.0549 0.78259,0.0743 0.72769,0.054 1.44746,0.23468 2.10659,0.54772 0.42677,0.20269 0.82556,0.45896 1.22182,0.71624 0.40679,0.26412 0.81541,0.53173 1.26395,0.71624 0.34827,0.14326 0.71927,0.23489 1.09542,0.25279 0.62743,0.0299 1.24411,-0.14384 1.8538,-0.29493 0.59861,-0.14835 1.21873,-0.28326 1.7274,-0.63197 0.1934,-0.13258 0.37062,-0.29598 0.58984,-0.37919 0.27993,-0.10625 0.59323,-0.0682 0.88477,0 0.42183,0.0987 0.83232,0.25778 1.26395,0.29492 0.15421,0.0133 0.30986,0.0108 0.46298,0.0334 0.15312,0.0226 0.30728,0.0731 0.42179,0.17726 0.10653,0.0969 0.17132,0.23535 0.18965,0.37816 0.0183,0.14282 -0.008,0.28941 -0.0633,0.42235 -0.12455,0.29932 -0.38787,0.52186 -0.6741,0.6741 -0.36141,0.19222 -0.7746,0.29348 -1.09543,0.54772 -0.21917,0.17368 -0.38065,0.40772 -0.54771,0.63197 -0.17278,0.23194 -0.35759,0.45963 -0.58984,0.63198 -0.32809,0.24347 -0.73322,0.36276 -1.13756,0.42132 -0.39002,0.0565 -0.78604,0.0606 -1.17969,0.0421 -0.39529,-0.0186 -0.78958,-0.06 -1.17969,-0.1264 -0.39667,-0.0675 -0.79733,-0.16435 -1.13756,-0.37918 -0.34567,-0.21826 -0.60797,-0.54475 -0.92689,-0.80051 -0.19807,-0.15884 -0.42416,-0.29248 -0.67411,-0.33705 -0.11187,-0.02 -0.22792,-0.0215 -0.33848,0.005 -0.11057,0.0262 -0.21547,0.0812 -0.2935,0.16381 -0.0972,0.1029 -0.14814,0.24412 -0.15688,0.38539 -0.009,0.14126 0.0224,0.28278 0.0726,0.41511 0.15406,0.40593 0.47747,0.72105 0.8005,1.01116 0.31071,0.27904 0.63042,0.54852 0.9269,0.84264 0.32839,0.32577 0.62985,0.68471 0.84264,1.09542 0.21997,0.42456 0.34172,0.89734 0.58984,1.30608 0.18665,0.30748 0.44007,0.57005 0.71624,0.80051 0.35378,0.29523 0.74686,0.54125 1.09542,0.84263 0.53767,0.4649 0.95649,1.05003 1.34822,1.64314 0.22973,0.34784 0.45204,0.70051 0.67411,1.05329 0.13821,0.21956 0.27738,0.44056 0.45324,0.63129 0.17586,0.19073 0.39251,0.3515 0.64218,0.42201 0.11553,0.0326 0.23677,0.0457 0.34834,0.09 0.0558,0.0221 0.10902,0.0523 0.15248,0.0937 0.0435,0.0414 0.0768,0.0946 0.089,0.15336 0.009,0.0426 0.006,0.0873 -0.005,0.1294 -0.0111,0.0421 -0.0308,0.0817 -0.0558,0.11738 -0.0499,0.0713 -0.11988,0.12625 -0.19236,0.17454 -0.13571,0.0904 -0.28555,0.16201 -0.44502,0.1961 -0.15947,0.0341 -0.32908,0.0294 -0.48188,-0.0276 -0.13309,-0.0496 -0.24987,-0.13722 -0.34656,-0.24128 -0.0967,-0.10405 -0.17428,-0.22441 -0.24329,-0.34856 -0.21695,-0.39028 -0.35225,-0.82034 -0.54771,-1.22182 -0.21665,-0.445 -0.51,-0.85641 -0.88477,-1.17969 -0.49324,-0.42548 -1.10669,-0.68377 -1.64313,-1.05329 -0.98346,-0.67745 -1.66922,-1.69798 -2.52791,-2.52791 -0.38593,-0.37301 -0.80788,-0.70834 -1.17969,-1.09542 -0.67612,-0.70387 -1.16863,-1.55916 -1.7274,-2.35938 -0.92332,-1.32231 -2.03611,-2.50461 -2.94922,-3.83399 -0.31397,-0.45711 -0.60425,-0.93177 -0.84263,-1.43247 -0.0595,-0.1249 -0.11567,-0.25136 -0.16853,-0.37919 z"
         id="path13308"
         transform="rotate(-3.8623399,733.45964,452.7809)" />
      <path
         style="opacity:1;vector-effect:none;fill:#af7b9e;fill-opacity:1;fill-rule:evenodd;stroke:none;stroke-width:2;stroke-linecap:butt;stroke-linejoin:miter;stroke-miterlimit:4;stroke-dasharray:none;stroke-dashoffset:0;stroke-opacity:1;paint-order:stroke fill markers"
         d="m 736.12561,233.6936 c -4.79496,1.53079 -8.80708,4.91997 -12.02796,8.7879 -3.22089,3.86793 -5.75862,8.24632 -8.53233,12.4465 -9.02165,13.66133 -20.54623,25.44607 -31.346,37.75002 -7.34758,8.37095 -14.42908,17.05889 -22.91967,24.26788 -11.22014,9.52653 -24.56795,16.18949 -36.40181,24.94198 -11.39448,8.42751 -21.26759,18.70134 -31.68306,28.31253 -4.9997,4.61363 -10.15468,9.10419 -14.49946,14.33921 -4.34478,5.23503 -7.88825,11.32259 -9.09431,18.01796 -0.58274,3.23507 -0.60199,6.61638 0.3449,9.76418 0.94688,3.1478 2.91795,6.04735 5.72207,7.76262 2.95757,1.80914 6.55013,2.18536 10.01112,2.38965 3.461,0.2043 7.02065,0.30043 10.21211,1.65499 2.80917,1.1923 5.16249,3.30922 6.95973,5.77558 1.79725,2.46637 3.06894,5.27814 4.10464,8.14874 2.07138,5.74121 3.28304,11.87469 6.46243,17.08464 3.51679,5.76283 9.19969,9.93402 15.28754,12.85226 6.08785,2.91823 12.64049,4.70771 19.09195,6.69686 11.3406,3.4966 22.46683,7.648 33.70539,11.45983 18.24606,6.18858 36.86802,11.4992 55.95093,14.15626 20.07748,2.79554 40.49254,2.62406 60.6697,0.67411 23.16289,-2.2385 47.05619,-7.2376 65.38844,-21.57144 11.22724,-8.77849 19.78992,-20.69891 25.6161,-33.70539 2.85755,-6.37926 5.11622,-13.24451 4.71875,-20.22323 -0.46978,-8.2484 -4.60855,-16.00685 -4.71875,-24.26788 -0.0956,-7.16718 2.85666,-14.09112 2.9488,-21.25834 0.0539,-4.19587 -0.87444,-8.33328 -1.70221,-12.44704 -0.91292,-4.53692 -1.71005,-9.10613 -2.06322,-13.72049 -0.67836,-8.86322 0.28744,-17.79859 -0.51756,-26.6512 -0.24567,-2.70168 -0.6575,-5.39521 -1.38911,-8.00752 -1.56638,-5.59298 -4.58436,-10.71992 -8.37333,-15.12203 -3.78897,-4.40212 -8.33786,-8.10396 -13.17125,-11.32472 -11.50551,-7.66676 -24.58289,-12.63579 -37.75003,-16.85269 -17.36054,-5.55988 -35.63894,-10.19693 -49.88397,-21.57145 -6.48209,-5.17589 -11.94272,-11.62331 -18.87502,-16.17858 -3.26588,-2.14604 -6.85294,-3.85336 -10.6645,-4.71559 -3.81156,-0.86224 -7.85829,-0.8546 -11.58105,0.33389 z"
         id="path13318"
         transform="rotate(-3.8623399,733.45964,452.7809)" />
      <path
         style="opacity:1;vector-effect:none;fill:#979797;fill-opacity:1;fill-rule:evenodd;stroke:none;stroke-width:2;stroke-linecap:butt;stroke-linejoin:miter;stroke-miterlimit:4;stroke-dasharray:none;stroke-dashoffset:0;stroke-opacity:1;paint-order:stroke fill markers"
         d="m 569.62101,412.66919 c -2.46885,2.19491 -3.77369,5.43854 -4.3956,8.68292 -0.62192,3.24439 -0.6417,6.57077 -0.99726,9.85504 -0.89057,8.22611 -3.86499,16.05586 -6.40403,23.93083 -4.07182,12.62898 -7.0955,25.89952 -5.72991,39.09824 1.08698,10.50585 4.90105,20.50209 7.75224,30.67191 3.27397,11.67783 5.29521,23.67372 8.42634,35.39065 1.0896,4.07736 2.32108,8.13951 4.16666,11.93503 1.84558,3.79552 4.3358,7.3355 7.63023,9.97347 4.8373,3.8734 11.02692,5.54944 16.51564,8.42635 2.36144,1.23775 4.63006,2.7284 6.40402,4.71875 1.1235,1.26055 2.06503,2.73374 3.4838,3.64933 0.70939,0.4578 1.5372,0.76104 2.3814,0.74917 0.4221,-0.006 0.84446,-0.0911 1.22979,-0.26353 0.38532,-0.17241 0.73281,-0.43303 0.9943,-0.76443 0.41734,-0.5289 0.59967,-1.22064 0.57671,-1.89398 -0.023,-0.67334 -0.24013,-1.3296 -0.55214,-1.92673 -0.62402,-1.19425 -1.6096,-2.15468 -2.38395,-3.25742 -1.56283,-2.2256 -2.22088,-4.9748 -2.42092,-7.68695 -0.20004,-2.71215 0.025,-5.43531 0.0616,-8.15458 0.11096,-8.24532 -1.50801,-16.40293 -2.35938,-24.60493 -1.3002,-12.52593 -0.80895,-25.15843 -1.01116,-37.75004 -0.1944,-12.10514 -1.0397,-24.25567 -3.70759,-36.06476 -2.0769,-9.19312 -5.26249,-18.2252 -5.72992,-27.63841 -0.22118,-4.45419 0.17302,-8.91297 0.29804,-13.3709 0.12502,-4.45792 -0.0289,-8.9844 -1.3092,-13.25636 -0.71818,-2.39639 -1.79231,-4.69688 -3.27496,-6.71187 -1.48265,-2.01499 -3.3807,-3.73999 -5.59078,-4.91217 -2.21008,-1.17218 -4.73568,-1.77872 -7.23181,-1.6119 -2.49612,0.16683 -4.95247,1.12508 -6.82211,2.78727 z"
         id="path13326"
         transform="rotate(-3.8623399,520.21558,424.58883)" />
      <path
         style="opacity:1;vector-effect:none;fill:#979797;fill-opacity:1;fill-rule:evenodd;stroke:none;stroke-width:1.63322949;stroke-linecap:butt;stroke-linejoin:miter;stroke-miterlimit:4;stroke-dasharray:none;stroke-dashoffset:0;stroke-opacity:1;paint-order:stroke fill markers"
         d="m 879.449,387.81398 c -4.17257,5.18798 -6.80502,11.47758 -8.44902,17.92915 -1.64399,6.45157 -2.34354,13.10128 -2.99096,19.72747 -1.1617,11.88975 -2.17192,23.80547 -2.38333,35.74996 -0.2115,11.94989 0.36785,24.01663 -1.90667,35.74996 -1.5493,7.99224 -4.40877,15.73518 -5.24333,23.83331 -0.42407,4.11494 -0.31795,8.26882 0,12.39332 0.57873,7.50747 1.85512,14.94091 2.86,22.4033 1.43083,10.62564 2.3123,21.32068 3.81333,31.93663 1.45492,10.28981 3.4973,20.61071 2.86,30.9833 -0.47286,7.69618 -2.41323,15.22478 -3.33667,22.87998 -0.69646,5.77356 -0.83402,11.70887 -2.85999,17.15998 -1.33844,3.60125 -3.46312,6.87262 -4.76666,10.48665 -0.20829,0.57748 -0.39747,1.17832 -0.37048,1.79162 0.0135,0.30665 0.0826,0.61317 0.22326,0.88598 0.14068,0.27281 0.35517,0.5107 0.62388,0.65906 0.33836,0.18681 0.74928,0.22272 1.12557,0.13444 0.37629,-0.0883 0.71877,-0.29447 1.00162,-0.55788 0.5657,-0.52681 0.88799,-1.25689 1.20947,-1.95989 1.27156,-2.78055 2.75577,-5.45861 4.29,-8.10332 5.37563,-9.26651 11.37809,-18.15135 17.15998,-27.16997 5.3431,-8.33419 10.51102,-16.80622 14.77665,-25.73997 5.84106,-12.23327 9.95215,-25.27536 12.39332,-38.60996 3.78826,-20.69293 3.55498,-41.89457 2.86,-62.91992 -0.55004,-16.64044 -1.45634,-33.63267 -7.62666,-49.09662 -3.84345,-9.63238 -9.62411,-18.38148 -13.71362,-27.91199 -2.04475,-4.76526 -3.66727,-9.74585 -4.33625,-14.88795 -0.66898,-5.14209 -0.35845,-10.46322 1.36655,-15.35332 1.05354,-2.98661 2.63885,-5.86326 2.84382,-9.0236 0.10248,-1.58018 -0.1659,-3.21526 -0.97579,-4.57596 -0.40495,-0.68036 -0.94229,-1.28506 -1.58806,-1.74314 -0.64577,-0.45808 -1.40083,-0.7671 -2.18663,-0.86395 -1.33,-0.16392 -2.68249,0.28658 -3.80156,1.02377 -1.11908,0.73719 -2.03192,1.74533 -2.87177,2.78956 z"
         id="path13334"
         transform="matrix(1.49616,-0.10101002,0.06735951,0.99772877,-467.75119,61.380308)" />
      <path
         style="opacity:0.56199999;vector-effect:none;fill:#000000;fill-opacity:1;fill-rule:evenodd;stroke:none;stroke-width:2;stroke-linecap:butt;stroke-linejoin:miter;stroke-miterlimit:4;stroke-dasharray:none;stroke-dashoffset:0;stroke-opacity:1;paint-order:stroke fill markers"
         d="m 706.00142,791.18067 c -0.0466,-0.0963 -0.0877,-0.19517 -0.12639,-0.29493 -0.34659,-0.89457 -0.49249,-1.88402 -0.29492,-2.82282 0.21569,-1.0249 0.8497,-1.95645 1.7274,-2.52791 0.86048,-0.56025 1.93138,-0.76727 2.94922,-0.63197 0.8084,0.10746 1.5795,0.42042 2.28381,0.83151 0.70432,0.41109 1.34668,0.91951 1.97149,1.4436 1.12752,0.94578 2.20967,1.95183 3.15988,3.07562 1.18909,1.40632 2.16757,2.99762 2.82283,4.71875 0.54469,1.43071 0.86348,2.94222 1.01116,4.46597 0.12907,1.33177 0.12884,2.67484 0.29492,4.00251 0.0563,0.45036 0.13182,0.89907 0.15541,1.35233 0.0236,0.45326 -0.006,0.91542 -0.15541,1.3441 -0.0477,0.13709 -0.10818,0.27145 -0.19762,0.38576 -0.0894,0.1143 -0.21009,0.20793 -0.35009,0.24622 -0.12847,0.0351 -0.2677,0.0218 -0.39208,-0.0258 -0.12438,-0.0476 -0.23447,-0.12827 -0.32683,-0.22423 -0.18474,-0.1919 -0.29779,-0.43951 -0.41865,-0.67689 -0.3901,-0.76616 -0.89433,-1.47221 -1.47461,-2.10659 -0.48999,-0.53567 -1.03562,-1.02279 -1.47461,-1.601 -0.54223,-0.71419 -0.90724,-1.54834 -1.43248,-2.27512 -0.49569,-0.68588 -1.12483,-1.26348 -1.76953,-1.81166 -0.85075,-0.72339 -1.73704,-1.40497 -2.57004,-2.14872 -0.77996,-0.69639 -1.51455,-1.44835 -2.35937,-2.06445 -0.75682,-0.55193 -1.60025,-0.99356 -2.27512,-1.64314 -0.30515,-0.29371 -0.57384,-0.62994 -0.75837,-1.01116 z"
         id="path13370-0"
         transform="rotate(-3.8623399,792.96571,-1673.1069)" />
      <path
         style="opacity:0.56199999;vector-effect:none;fill:#ffffff;fill-opacity:1;fill-rule:evenodd;stroke:none;stroke-width:2;stroke-linecap:butt;stroke-linejoin:miter;stroke-miterlimit:4;stroke-dasharray:none;stroke-dashoffset:0;stroke-opacity:1;paint-order:stroke fill markers"
         d="m 709.45622,787.97866 c 0.48301,0.1475 0.9191,0.4449 1.23277,0.84072 0.31367,0.39581 0.50355,0.88832 0.53677,1.39226 0.0182,0.27582 -0.0102,0.55697 -0.10562,0.81641 -0.0954,0.25943 -0.26011,0.4964 -0.48423,0.6582 -0.17716,0.12789 -0.38868,0.20672 -0.60588,0.23045 -0.21721,0.0237 -0.43965,-0.007 -0.64378,-0.0851 -0.40827,-0.15582 -0.73354,-0.49925 -0.89906,-0.90368 -0.15973,-0.39028 -0.17672,-0.82133 -0.22994,-1.23966 -0.0266,-0.20916 -0.063,-0.41814 -0.13105,-0.6177 -0.0681,-0.19957 -0.16896,-0.39027 -0.31311,-0.54415 -0.14208,-0.15167 -0.33018,-0.26665 -0.53636,-0.29275 -0.10308,-0.013 -0.20943,-0.004 -0.30726,0.0315 -0.0978,0.035 -0.18685,0.0959 -0.25181,0.177 -0.0741,0.0925 -0.1145,0.20653 -0.16378,0.31429 -0.0246,0.0539 -0.0519,0.10687 -0.0867,0.15481 -0.0348,0.0479 -0.0775,0.0909 -0.12869,0.12075 -0.0599,0.035 -0.13043,0.0511 -0.19977,0.0478 -0.0693,-0.003 -0.13741,-0.0256 -0.19649,-0.0621 -0.11818,-0.0729 -0.19707,-0.20035 -0.22725,-0.33588 -0.0302,-0.13552 -0.0149,-0.27834 0.0258,-0.41108 0.0407,-0.13275 0.10593,-0.25663 0.17634,-0.3763 0.29978,-0.50948 0.69694,-0.95371 1.09542,-1.39035 0.18134,-0.19871 0.36589,-0.39867 0.58985,-0.54771 0.37948,-0.25255 0.84904,-0.34131 1.30479,-0.3325 0.45575,0.009 0.9042,0.10871 1.34951,0.20611 0.83581,0.18281 1.68512,0.36258 2.44364,0.75837 0.99389,0.5186 1.76329,1.3703 2.57003,2.14872 1.12973,1.09008 2.39904,2.10122 3.11775,3.49693 0.49879,0.96862 0.69779,2.06127 1.09543,3.07562 0.2243,0.57217 0.51147,1.11842 0.72758,1.69373 0.21611,0.57532 0.36094,1.19352 0.28358,1.8032 -0.0489,0.3853 -0.18528,0.75791 -0.20491,1.1458 -0.01,0.19395 0.0107,0.39193 0.0837,0.57185 0.0731,0.17992 0.20196,0.3409 0.37395,0.43107 0.0836,0.0438 0.17643,0.0709 0.25279,0.12639 0.10525,0.0765 0.16841,0.20035 0.19581,0.32752 0.0274,0.12717 0.0226,0.25886 0.0148,0.38872 -0.0161,0.27109 -0.045,0.54562 -0.14521,0.79803 -0.0501,0.12621 -0.11796,0.246 -0.20648,0.34897 -0.0885,0.10297 -0.19806,0.18885 -0.32242,0.24335 -0.24054,0.10542 -0.52224,0.0865 -0.76865,-0.004 -0.2464,-0.0909 -0.46258,-0.2482 -0.66383,-0.41694 -0.19845,-0.16639 -0.38705,-0.3471 -0.53876,-0.55699 -0.15171,-0.20988 -0.26586,-0.45079 -0.30387,-0.70696 -0.0109,-0.0738 -0.0156,-0.14867 -0.0314,-0.22161 -0.0158,-0.0729 -0.0439,-0.14531 -0.095,-0.19971 -0.0354,-0.0377 -0.0806,-0.0653 -0.1289,-0.0839 -0.0483,-0.0185 -0.0995,-0.0282 -0.15102,-0.0331 -0.10293,-0.01 -0.2069,-6.7e-4 -0.30992,-0.009 -0.2145,-0.0182 -0.41852,-0.11477 -0.58216,-0.25464 -0.16365,-0.13986 -0.28849,-0.32138 -0.37948,-0.51647 -0.18199,-0.39019 -0.23026,-0.82674 -0.30231,-1.25121 -0.0435,-0.25652 -0.0968,-0.51441 -0.0842,-0.7743 0.006,-0.12994 0.0294,-0.25978 0.077,-0.38084 0.0476,-0.12107 0.1204,-0.23327 0.21783,-0.31948 0.12172,-0.10772 0.27723,-0.17123 0.43575,-0.20715 0.15852,-0.0359 0.32156,-0.046 0.4836,-0.0587 0.16205,-0.0127 0.32514,-0.0283 0.48088,-0.0748 0.15575,-0.0465 0.30526,-0.12615 0.41144,-0.24922 0.0845,-0.0979 0.1386,-0.2205 0.16101,-0.34788 0.0224,-0.12737 0.0137,-0.25934 -0.0182,-0.38465 -0.064,-0.25063 -0.21797,-0.46976 -0.39556,-0.65782 -0.50231,-0.53192 -1.19484,-0.84658 -1.7274,-1.34821 -0.69407,-0.65375 -1.06646,-1.57488 -1.34822,-2.48577 -0.14981,-0.48433 -0.28115,-0.97789 -0.50558,-1.43248 -0.32667,-0.66167 -0.85641,-1.22951 -1.51674,-1.55888 -0.35135,-0.17525 -0.73223,-0.28151 -1.10025,-0.41834 -0.36802,-0.13684 -0.73307,-0.31089 -1.00634,-0.59282 -0.17439,-0.17991 -0.30509,-0.39736 -0.4692,-0.58669 -0.0821,-0.0947 -0.17302,-0.18267 -0.27773,-0.25145 -0.1047,-0.0688 -0.22388,-0.11794 -0.34849,-0.13089 -0.11104,-0.0115 -0.22491,0.006 -0.32744,0.0503 -0.10254,0.0442 -0.19353,0.11462 -0.26241,0.20248 -0.13083,0.16688 -0.17654,0.39716 -0.11937,0.60136 0.0572,0.2042 0.21582,0.37726 0.41429,0.45194 z"
         id="path13374-1"
         transform="rotate(-3.8623399,792.96571,-1673.1069)" />
    </g>
  </g>
</svg>
